<?xml version="1.0" encoding="UTF-8" standalone="no"?>
<!-- Generator: Adobe Illustrator 18.1.0, SVG Export Plug-In . SVG Version: 6.00 Build 0)  -->

<svg
   xmlns:dc="http://purl.org/dc/elements/1.1/"
   xmlns:cc="http://creativecommons.org/ns#"
   xmlns:rdf="http://www.w3.org/1999/02/22-rdf-syntax-ns#"
   xmlns:svg="http://www.w3.org/2000/svg"
   xmlns="http://www.w3.org/2000/svg"
   xmlns:xlink="http://www.w3.org/1999/xlink"
   xmlns:sodipodi="http://sodipodi.sourceforge.net/DTD/sodipodi-0.dtd"
   xmlns:inkscape="http://www.inkscape.org/namespaces/inkscape"
   version="1.1"
   id="Layer_1"
   x="0px"
   y="0px"
   width="300px"
   height="1200px"
   viewBox="-489 -200 300 1200"
   enable-background="new -489 -200 300 1200"
   xml:space="preserve"
   inkscape:version="0.91 r"
   sodipodi:docname="logo12.svg">
<!-- 	<metadata
     id="metadata177">
	<rdf:RDF>
		<cc:Work
         rdf:about="">
			<dc:format>image/svg+xml</dc:format>
			<dc:type
           rdf:resource="http://purl.org/dc/dcmitype/StillImage" />
		</cc:Work>
	</rdf:RDF>
</metadata> -->
<!-- <defs
     id="defs175" />
<sodipodi:namedview
     pagecolor="#ffffff"
     bordercolor="#666666"
     borderopacity="1"
     objecttolerance="10"
     gridtolerance="10"
     guidetolerance="10"
     inkscape:pageopacity="0"
     inkscape:pageshadow="2"
     inkscape:window-width="1301"
     inkscape:window-height="744"
     id="namedview173"
     showgrid="false"
     inkscape:zoom="0.55625733"
     inkscape:cx="185.28023"
     inkscape:cy="534.4964"
     inkscape:window-x="65"
     inkscape:window-y="24"
     inkscape:window-maximized="1"
     inkscape:current-layer="Layer_1" /> -->
<rect
     x="-48.6"
     y="-199.4"
     fill="none"
     stroke="#70706E"
     stroke-width="0.7484"
     stroke-miterlimit="10"
     width="299.4"
     height="299.4"
     id="rect3" />
<rect
     x="-48.6"
     y="100.5"
     fill="none"
     stroke="#70706E"
     stroke-width="0.7484"
     stroke-miterlimit="10"
     width="299.4"
     height="299.4"
     id="rect5" />
<rect
     x="-48.6"
     y="399.6"
     fill="none"
     stroke="#70706E"
     stroke-width="0.7484"
     stroke-miterlimit="10"
     width="299.4"
     height="299.4"
     id="rect7" />
<rect
     x="-48.6"
     y="700"
     fill="none"
     stroke="#70706E"
     stroke-width="0.7484"
     stroke-miterlimit="10"
     width="299.4"
     height="299.4"
     id="rect9" />
<style>
	#sunflower path, #letterZ, #letter-yellow path {
			fill:#ffe100;
            }
    #color-red path, #letterR, #letter-red path {
			fill:#ed1c24;
            }
</style>
<!-- 1 -->
	<g id="logo1">
		<use xlink:href="#text" transform="matrix(1.0143229,0,0,1.0143229,-22.893245,-251.61179)" />
		<use xlink:href="#sunflower" transform="matrix(2.3827156,0,0,2.3827156,652.74503,-698.50918)" />
	</g>
<!-- /1 -->
<!-- 2 -->
<g id="logo">
	<g id="text">
		<path id="letterZ" d="m -381.27236,247.9806 c 5.40529,-7.16755 10.29196,0.0307 11.45269,-5.25698 0.32502,-3.90383 -3.12907,-3.98108 -5.97298,-4.49675 -0.54069,-0.0981 -0.5985,-1.59525 -0.0515,-1.64772 13.12295,-4.49146 -0.35946,-11.37939 0.0687,-3.08954 -1.58964,0.85858 -3.32051,1.10929 -4.94317,1.25297 -0.21279,-2.74076 1.31109,-4.98895 3.48424,-6.26477 8.5231,-5.00371 17.67381,5.57238 6.74537,8.80499 11.76631,2.02577 8.10862,12.38322 0.15001,10.73181 -4.74993,-2.60578 -7.13157,-0.74135 -9.92066,1.21904 -0.61916,-0.10747 -0.7757,-0.69353 -1.01267,-1.25305 z" />
		<path id="letterR" d="m -372.97276,267.17593 c 0.18294,0.20812 0.8378,2.57997 1.12979,3.78976 4.82012,-0.87524 9.49568,-6.83719 6.79499,-15.00323 -0.70582,-1.35553 -3.13367,-6.32767 -6.13343,-6.66088 -2.92785,-0.32522 -5.58885,2.75688 -7.26717,5.02898 -1.51777,2.05474 -1.99561,3.76382 -2.03905,5.81852 -0.0866,4.09849 2.70634,7.76097 3.57315,11.76768 1.08106,5.01089 2.35222,11.11394 0.53726,16.5697 3.2178,-2.09916 3.10497,-6.10878 3.48689,-9.44209 0.43149,-3.76598 -0.49818,-8.50172 -1.42456,-11.28225 -1.93333,-5.84712 -2.42451,-9.0636 -1.80556,-10.9943 0.86241,-2.69012 3.5957,-5.24371 6.44918,-1.18262 5.37046,7.64326 2.08024,11.47469 -3.30149,11.59073 z" />

		<g id="letter-yellow">
			<path d="m -341.85988,246.65372 c -0.0171,-7.58523 7.57149,-12.25035 6.71103,-19.0003 1.41621,-0.80593 5.49384,-0.52243 5.59538,0.75523 -0.10818,7.13161 -0.0451,8.99041 4.06344,17.97203 0.73398,1.60458 -3.39869,2.32105 -4.51656,0.95586 -3.00938,-3.67509 -2.92322,-11.71157 -3.97513,-16.59401 -1.74067,5.23756 -4.45935,10.05585 -2.43725,15.32381 1.2811,2.55472 -5.57914,2.59312 -5.44091,0.58703 z" />
			<path d="m -314.26956,226.47961 c 18.25123,6.02943 3.86014,33.52219 -7.44907,16.49435 -3.52698,-5.31043 0.63926,-18.74403 7.44907,-16.49435 z m 4.39392,16.56213 c 5.16654,-2.3233 -0.82817,-12.96441 -8.29011,-12.15194 -7.97039,4.55325 4.50227,16.124 8.29011,12.15194 z" />
			<path d="m -352.67901,227.07091 c 18.25124,6.02943 3.86015,33.52219 -7.44908,16.49435 -3.52696,-5.31042 0.63928,-18.74403 7.44908,-16.49435 z m 4.39393,16.56212 c 5.16652,-2.32329 -0.82818,-12.96441 -8.2901,-12.15193 -7.9704,4.55326 4.50225,16.124 8.2901,12.15193 z" />
			<path d="m -272.39686,226.20316 c 18.25123,6.02944 3.86015,33.5222 -7.44908,16.49435 -3.52696,-5.31042 0.63928,-18.74402 7.44908,-16.49435 z m 4.39392,16.56212 c 5.16654,-2.32328 -0.82816,-12.96439 -8.29009,-12.15191 -7.97041,4.55324 4.50225,16.12399 8.29009,12.15191 z" />
			<path d="m -295.61548,246.43727 c -0.10903,2.87187 4.84038,1.50738 5.01183,0.36039 -0.40641,-7.77871 -0.84865,-8.69759 -0.84181,-17.23749 0.0119,-1.91488 2.63045,-1.32967 3.91069,-0.93336 0.91128,0.28209 0.96776,2.14198 1.92147,2.12086 1.24679,-0.0276 2.13342,-1.14954 2.38677,-2.8811 -0.16146,-0.8134 -0.4679,-1.82603 -1.18881,-1.80757 -6.17939,0.18044 -6.25257,1.23268 -18.37795,0.46604 -0.72091,-0.0185 -1.02735,0.99418 -1.18881,1.80758 0.25336,1.73155 1.13997,2.85349 2.38678,2.88109 0.95372,0.0211 1.01018,-1.83876 1.92147,-2.12086 1.28023,-0.3963 3.89882,-0.98151 3.91068,0.93336" />
			<path d="m -242.29224,246.31752 c -1.07553,-6.97931 -0.66953,-13.0489 0.0343,-19.29214 -1.67549,-0.94419 -4.99165,-0.90311 -5.00153,0.18542 -0.18074,3.62016 -0.0601,3.33833 -0.0995,6.7728 -0.31626,4.04663 -3.24659,10.58927 -6.65955,10.77539 -0.90992,-6.38779 -0.28408,-12.0426 0.38105,-17.73361 -1.17746,-0.79673 -4.59728,-1.08764 -5.04272,0.27462 -0.74318,6.15448 -0.25215,12.77191 -0.0721,18.57127 0.0157,1.31063 0.30584,1.91162 1.16714,1.80213 l 3.17529,-0.0176 c 2.52917,-0.64265 6.19778,-4.20516 6.85865,-6.32654 -0.38905,2.82626 -0.0561,6.32654 1.32848,6.32654 l 2.35143,0 c 1.15188,0.015 1.44632,-0.44879 1.5791,-1.3383 z" />

			<g id="boll">
				<path style="fill:#ed1c24" d="m -248.8953,222.18825 a 2.1445011,2.2588742 42.796155 0 1 0.0691,3.11016 2.1445011,2.2588742 42.796155 0 1 -3.10541,0.23509 2.1445011,2.2588742 42.796155 0 1 -0.0779,-3.1095 2.1445011,2.2588742 42.796155 0 1 3.10518,-0.24388" />
				<path d="m -248.20339,224.03673 c -1.53192,-0.37276 -2.90799,0.10021 -3.99213,1.15519 l -0.31511,-0.56453 c 1.32382,-2.44324 1.81414,-2.99452 4.26565,-1.40851 z" />
			</g>
		</g>

		<g id="color-red">
			<path d="m -359.65642,266.33203 c -1.43308,0.42682 -2.28143,2.65216 -1.85369,4.08497 14.09742,3.78293 15.87332,-10.8557 16.30559,-20.08161 -0.36829,-1.51337 -3.36187,-0.4076 -4.3596,0.0343 -0.68736,2.72024 -0.5916,5.90113 -0.65222,8.32443 -6.80796,2.77092 -6.00209,-4.30793 -7.01999,-8.41025 -1.2982,-0.59223 -3.64409,-0.47722 -4.80585,0.0171 0.18068,3.63812 1.51395,7.50504 3.22678,10.48707 2.72678,2.59005 4.95225,0.0424 8.65054,-0.20597 -1.29581,11.79008 -6.82114,5.55995 -9.49156,5.74986 z" />
			<path d="m -342.15182,258.54809 c 0.798,-3.99764 4.22405,-8.2544 8.22144,-9.05372 2.93136,-0.58615 6.66429,1.79177 8.11846,3.81036 0.0865,0.69831 -1.16137,2.46198 -3.00399,4.02823 -2.14188,-1.15733 -5.29931,-5.6395 -7.63754,-4.14838 -1.34546,0.95766 -0.89252,3.45449 -0.89252,4.87336 0.48638,3.46542 2.11162,9.35571 6.32784,8.83874 1.83295,-0.54728 2.85496,-2.33312 4.00475,-3.63697 l 1.64772,1.08131 c -1.92475,2.60218 -4.54567,6.94724 -8.04981,7.03715 -2.42209,-0.38479 -4.17923,-2.19624 -5.54389,-3.89617 -1.62289,-2.23222 -3.81152,-5.8327 -3.19246,-8.93391 z" />
			<path d="m -301.44293,259.06166 c 0.0797,-2.83565 0.12652,-5.74969 0.85818,-8.46174 1.54826,-0.42182 3.85568,-1.26099 4.56557,0.12015 -0.31686,2.9282 -0.61254,6.28324 -0.61789,8.99381 4.29107,-3.55837 6.77117,-11.77562 10.88182,-9.33709 1.63483,0.96982 -0.83598,3.61825 -0.90962,5.46838 l -1.04698,-0.0755 c -2.38795,-3.84286 -6.12004,2.28911 -7.44907,4.37332 4.81682,1.51567 9.78673,5.73639 9.54304,10.38408 -0.0228,0.43423 -4.12341,0.65101 -5.47524,0.27463 -1.12253,-3.93519 -1.67426,-8.11093 -5.54389,-9.52589 0.0567,3.06223 0.19364,6.34812 0.4497,9.19977 -1.47743,0.64915 -3.1067,0.39663 -4.52781,0.11329 -0.95915,-3.85365 -0.72725,-8.20143 -0.72775,-11.52719 z" />
			<path d="m -263.66634,269.52594 c -1.07551,-6.97931 -0.66953,-13.0489 0.0344,-19.29214 -1.6755,-0.94419 -4.99164,-0.90311 -5.00152,0.18542 -0.18074,3.62016 -0.0601,3.33833 -0.0996,6.7728 -0.31626,4.04663 -3.24661,10.58927 -6.65954,10.77539 -0.90993,-6.38779 -0.2841,-12.0426 0.38103,-17.73361 -1.17745,-0.79673 -4.59728,-1.08764 -5.04271,0.27462 -0.74318,6.15448 -0.25215,12.7719 -0.0721,18.57128 0.0158,1.31062 0.30583,1.91161 1.16714,1.80211 l 3.1753,-0.0176 c 2.52917,-0.64265 6.19776,-4.20515 6.85864,-6.32655 -0.38904,2.82627 -0.0561,6.32655 1.32847,6.32655 l 2.35144,0 c 1.15188,0.015 1.44632,-0.4488 1.5791,-1.3383 z" />
			<path d="m -242.10483,269.44843 c -1.07552,-6.97931 -0.66953,-13.04891 0.0344,-19.29214 -1.6755,-0.94419 -4.99164,-0.90311 -5.00152,0.18542 -0.18074,3.62016 -0.0601,3.33833 -0.0995,6.77279 -0.31626,4.04663 -3.24661,10.58928 -6.65954,10.7754 -0.90992,-6.3878 -0.2841,-12.0426 0.38103,-17.73361 -1.17744,-0.79673 -4.59727,-1.08764 -5.04271,0.27462 -0.74318,6.15448 -0.25215,12.77191 -0.0721,18.57127 0.0158,1.31062 0.30583,1.91162 1.16715,1.80212 l 3.17529,-0.0176 c 2.52917,-0.64266 6.19777,-4.20516 6.85865,-6.32655 -0.38905,2.82626 -0.0561,6.32655 1.32847,6.32655 l 2.35144,0 c 1.15187,0.015 1.44632,-0.44879 1.5791,-1.3383 z" />
			<path d="m -252.93345,249.36403 c 4.53321,0.0289 4.85509,-2.51245 4.8528,-3.86048 -0.12775,1.53714 -2.63748,3.64586 -4.8528,3.86048 z" />
			<path d="m -322.2237,258.58938 c 0.79802,-3.99764 4.22407,-8.2544 8.22146,-9.05372 2.93136,-0.58616 6.66429,1.79177 8.11845,3.81036 0.0866,0.69831 -1.16136,2.46198 -3.00398,4.02823 -2.14187,-1.15733 -5.29932,-5.6395 -7.63754,-4.14838 -1.34546,0.95766 -0.89253,3.45449 -0.89253,4.87336 0.4864,3.46542 2.11162,9.35571 6.32785,8.83874 1.83294,-0.54729 2.85496,-2.33312 4.00475,-3.63697 l 1.64772,1.08131 c -1.92476,2.60218 -4.54567,6.94724 -8.04981,7.03715 -2.42209,-0.38479 -4.17924,-2.19624 -5.5439,-3.89617 -1.6229,-2.23222 -3.81153,-5.8327 -3.19247,-8.93391 z" />
		</g>
	</g>

	<g id="sunflower">
		<path d="m -422.46594,241.54382 c -2.19647,-1.07635 -2.88696,-1.62591 -3.72975,-2.96852 -0.99694,-1.58819 -1.63419,-2.35286 -2.44804,-2.93756 -0.64598,-0.46409 -0.67372,-0.5137 -0.9522,-1.70287 -0.15778,-0.67367 -0.35094,-1.78704 -0.42928,-2.47415 -0.1488,-1.3053 -0.19955,-4.78895 -0.0697,-4.78895 0.19373,0 1.3724,0.67695 2.6299,1.51043 0.76238,0.50532 2.02728,1.5357 2.81091,2.28974 l 1.42476,1.371 0,0.71954 c 0,0.83391 0.39937,1.93948 1.307,3.61812 0.58466,1.08133 0.62631,1.23083 0.70149,2.51797 0.0439,0.7526 0.0317,1.82311 -0.0273,2.37891 l -0.10724,1.01053 -1.11048,-0.54419 z" />
		<path d="m -418.9802,239.71592 c -1.21952,-1.29276 -2.16705,-2.61154 -2.16705,-3.01613 0,-0.93352 -0.89463,-3.70145 -1.40816,-4.35678 -0.49137,-0.62703 -0.51524,-1.29331 -0.11977,-3.3426 0.40389,-2.09289 1.70163,-5.8354 1.93292,-5.57423 1.67554,1.89205 2.88834,3.67242 3.79584,5.57218 l 0.69273,1.45017 -0.24621,0.81319 c -0.26246,0.86684 -0.23714,2.00939 0.0912,4.11471 0.14615,0.93716 0.13201,1.07783 -0.22265,2.21536 -0.42472,1.36222 -1.16747,3.0998 -1.32504,3.0998 -0.0569,0 -0.51759,-0.43905 -1.02381,-0.97567 z" />
		<path d="m -414.71968,239.91056 c -0.23581,-0.52739 -0.61386,-1.55122 -0.84008,-2.27519 -0.40122,-1.28392 -0.40685,-1.34191 -0.22873,-2.35737 0.2309,-1.31629 0.24414,-3.41627 0.0267,-4.22936 -0.16323,-0.6103 -0.15228,-0.6531 0.48884,-1.91063 0.78035,-1.53063 2.1051,-3.41855 3.33835,-4.75753 l 0.89411,-0.97074 0.16859,0.41643 c 0.85439,2.1103 1.45148,4.56672 1.60938,6.62088 0.0908,1.18078 0.0874,1.19788 -0.34924,1.80597 -0.51232,0.71339 -1.0212,2.13348 -1.34584,3.75575 -0.26256,1.31203 -0.84463,2.25088 -2.41928,3.90216 l -0.91403,0.9585 -0.42874,-0.95887 z" />
		<path style="fill:#3bbd00;" d="m -416.12374,236.84047 c -0.39902,1.50558 -1.13452,3.095 -1.73578,4.3085 -1.19853,-0.90943 -3.18399,-3.49186 -3.20249,-3.55968 0.32021,2.11635 0.0131,4.89101 -0.0859,4.82465 0,0 -2.83006,-1.22351 -4.11167,-2.16343 0.0462,0.0185 1.24202,3.11189 1.40927,4.42076 -1.78651,0.0881 -4.82328,-0.77733 -4.82328,-0.77733 0.0132,-0.15874 2.77207,2.8883 2.98755,3.75025 -2.58164,0.96656 -3.86353,0.94287 -4.57571,1.05688 -0.18101,-0.10408 1.76992,0.72766 3.99476,2.37056 -1.14339,1.19518 -4.05326,2.62073 -4.05326,2.62073 0,0 3.19541,0.30396 4.6779,0.92638 -0.62047,1.48052 -2.82946,3.71144 -2.82946,3.71144 0,0 2.57579,-0.73066 4.6097,-0.68069 -0.17718,1.62456 -1.38987,4.46774 -1.42627,4.43134 0,0 2.82759,-1.70614 4.15381,-2.15674 0.3189,1.52189 0.10072,4.63537 0.10072,4.63537 0,0 1.76032,-2.33653 3.17337,-3.45551 0.85934,1.36006 1.78922,4.43539 1.75265,4.46466 -0.0442,-0.006 0.995,-3.20454 1.74016,-4.47107 1.16072,0.90538 3.21256,3.54354 3.18968,3.60072 0,0 -0.14622,-3.43345 0.15827,-4.76182 1.54834,0.47129 4.16637,2.24972 4.16637,2.24972 0,0 -1.2746,-3.10496 -1.51407,-4.54084 1.62652,0.0976 3.35702,0.39326 4.72353,0.73518 -1.06407,-1.14938 -2.19921,-2.57997 -2.97383,-3.76297 1.54923,-0.49839 3.28127,-0.82441 4.68414,-0.93714 -1.45717,-0.70431 -2.91173,-1.65404 -4.08084,-2.45712 1.2167,-1.11468 2.85094,-1.94563 4.05326,-2.5718 -1.64361,-0.0883 -3.3114,-0.57607 -4.69959,-0.9184 0.55933,-1.36129 2.85185,-3.72948 2.85185,-3.72948 0,0 -3.04864,0.65037 -4.62602,0.75131 0.39746,-1.62809 1.0138,-3.33412 1.51494,-4.5004 -1.25074,0.74721 -2.79009,1.57319 -4.05291,2.14878 -0.42328,-1.56872 -0.22542,-3.06483 -0.26651,-4.66888 -0.95229,1.35523 -1.95513,2.37653 -3.13,3.48987 -0.81851,-1.4042 -1.75438,-4.3838 -1.75438,-4.3838 z m -0.81048,5.3841 0.85399,1.41158 0.85997,-1.29012 0.41538,1.36172 1.06294,-1.11135 0.20579,1.51077 1.27671,-1.08375 -0.0894,1.62962 1.42524,-0.82591 -0.33818,1.57011 1.51632,-0.49364 -0.53042,1.40179 1.56491,-0.22851 -0.86565,1.31869 1.60568,0.0616 -1.04559,1.13303 1.6423,0.28422 -1.33066,0.98728 1.54772,0.58266 -1.41568,0.72181 1.41534,0.83043 -1.46202,0.46033 1.17763,1.07994 -1.58226,0.21203 1.05791,1.26075 -1.57445,-0.0777 0.76015,1.4216 -1.5401,-0.31599 0.58352,1.55953 -1.52465,-0.64581 0.27155,1.62113 -1.3593,-0.88579 -0.007,1.64802 -1.17919,-1.08862 -0.32794,1.60239 -0.94095,-1.27445 -0.53703,1.55954 -0.76432,-1.44241 -0.84882,1.37282 -0.44176,-1.41135 -1.08515,1.16688 -0.19642,-1.59077 -1.25727,1.03397 0.0528,-1.5637 -1.41933,0.78636 0.31632,-1.52102 -1.5231,0.54015 0.58942,-1.47381 -1.6187,0.27744 0.82193,-1.29058 -1.62407,-0.0585 1.13112,-1.22026 -1.65826,-0.31285 1.34178,-0.96056 -1.5486,-0.57224 1.35323,-0.6977 -1.39991,-0.89376 1.54739,-0.45877 -1.17919,-1.06987 1.56075,-0.19086 -1.10094,-1.29648 1.61904,0.0715 -0.79607,-1.40182 1.57462,0.32551 -0.52417,-1.52535 1.46479,0.61354 -0.25802,-1.55537 1.32043,0.80371 0.0413,-1.62164 1.166,1.07056 0.28578,-1.62754 0.98867,1.30846 z" />
		<path d="m -430.39432,275.17072 c -0.25125,-1.00105 0.24918,-5.20832 0.84315,-7.08856 0.30621,-0.96932 0.39942,-1.11728 0.85939,-1.36427 0.60211,-0.32332 1.90333,-1.90708 2.62053,-3.18956 0.40812,-0.72978 0.67327,-1.00989 1.42858,-1.50914 1.10067,-0.72754 3.214,-1.80546 3.32403,-1.69543 0.0426,0.0426 0.0797,1.09285 0.0823,2.33383 l 0.005,2.25635 -0.55552,0.97167 c -0.86173,1.50724 -1.44254,3.01463 -1.44254,3.74384 0,0.81555 -0.27541,1.19241 -1.80367,2.46808 -1.24109,1.03595 -2.7729,2.07177 -4.33486,2.93123 l -0.93316,0.51347 -0.0932,-0.37151 z" />
		<path d="m -437.72935,268.83532 c 0.6128,-2.04025 1.92694,-4.65275 3.1623,-6.28664 0.65451,-0.86564 0.78097,-0.9643 1.41625,-1.10496 0.75671,-0.16754 2.29752,-1.09825 3.55811,-2.14924 0.72186,-0.60185 0.90161,-0.67871 2.22097,-0.94987 1.76753,-0.36326 3.17065,-0.51886 3.17065,-0.3516 0,0.33448 -0.59153,2.19154 -1.03282,3.24247 -0.43477,1.03537 -0.59887,1.26488 -1.33988,1.87393 -1.14298,0.93942 -2.28595,2.2641 -2.61414,3.02973 -0.14872,0.34697 -0.4149,0.72479 -0.5915,0.83962 -0.94444,0.61408 -3.96105,1.56323 -6.24674,1.96548 -1.63717,0.28812 -1.81897,0.2765 -1.7032,-0.10892 z" />
		<path d="m -438.91493,261.36814 c -1.25148,-0.15424 -3.3326,-0.54835 -3.5756,-0.67712 -0.43575,-0.23092 3.02386,-3.73338 4.97572,-5.03733 1.1127,-0.74335 1.19736,-0.77558 1.7925,-0.68222 0.78183,0.12263 2.26374,-0.14017 3.9207,-0.69531 1.21108,-0.40574 1.2872,-0.41411 2.40867,-0.26487 1.0516,0.13993 3.22204,0.62735 3.34612,0.75143 0.0278,0.0278 -0.31867,0.54307 -0.77012,1.14487 -1.14823,1.53068 -2.30114,2.59291 -3.14475,2.89742 -1.36414,0.49241 -2.92549,1.35704 -3.55542,1.9689 l -0.64041,0.62204 -1.85817,0.0502 c -1.02199,0.0277 -2.32665,-0.008 -2.89924,-0.0781 z" />
		<path d="m -437.3447,254.36029 c -1.72751,-0.46544 -4.35302,-1.66594 -6.16995,-2.82115 l -0.84448,-0.53692 0.81346,-0.48972 c 1.87216,-1.12709 3.94726,-2.01242 5.81455,-2.48075 l 1.18142,-0.29631 0.79542,0.35129 c 0.86508,0.38204 2.57312,0.65584 4.09141,0.65584 0.88288,0 1.07109,0.0568 2.30299,0.69528 0.73784,0.3824 1.64991,0.92242 2.0268,1.20005 l 0.68527,0.50476 -0.40765,0.32867 c -0.48429,0.39046 -1.92419,1.25612 -2.93632,1.76529 -0.58597,0.2948 -0.91944,0.3643 -1.74775,0.3643 -1.57792,0 -3.28016,0.27215 -4.01287,0.64157 -0.7507,0.37848 -0.6519,0.37118 -1.5923,0.1178 z" />
		<path d="m -431.26609,248.23669 c -1.09523,-0.47758 -3.14252,-0.92393 -4.16131,-0.90725 -0.96248,0.0157 -1.07038,-0.0142 -1.80219,-0.49965 -1.56485,-1.03813 -5.4899,-5.17015 -5.18956,-5.4632 0.18177,-0.17736 2.55142,-0.53389 4.12886,-0.62123 0.8398,-0.0465 2.11125,-0.0176 2.82544,0.0642 1.26691,0.14518 1.31469,0.16391 1.96113,0.76857 0.69873,0.65358 1.89507,1.30821 3.59459,1.96691 0.9112,0.35317 1.1264,0.51294 1.95038,1.44802 0.79088,0.89752 1.50187,1.83468 1.8589,2.45022 0.10756,0.18545 -1.74015,0.66077 -3.42075,0.87997 -1.27539,0.16636 -1.15117,0.17253 -1.74549,-0.0866 z" />
		<path d="m -425.58475,244.28815 c -1.58845,-0.20543 -3.07509,-0.58105 -3.47531,-0.87809 -0.21437,-0.15912 -0.80391,-0.60503 -1.31006,-0.99092 -1.08169,-0.8247 -2.13592,-1.39289 -2.95696,-1.59373 -0.52311,-0.12795 -0.66921,-0.26273 -1.30292,-1.20182 -0.88079,-1.30529 -1.88413,-3.39785 -2.54057,-5.29867 l -0.49694,-1.43891 0.79909,0.0989 c 1.31933,0.16338 3.83143,0.84933 5.13096,1.40107 1.94343,0.82512 2.33254,1.08971 2.51932,1.71315 0.18297,0.61066 1.33159,1.95144 2.57012,3.00005 0.62466,0.52888 0.92124,0.91711 1.26945,1.66177 0.45776,0.97895 1.1775,3.10449 1.1775,3.47742 0,0.21905 -0.0583,0.22115 -1.38368,0.0497 z" />
		<path d="m -410.97893,238.76038 c 0.0679,-1.37885 0.10425,-1.52538 0.58859,-2.3719 0.81923,-1.43185 1.45837,-3.13654 1.45837,-3.88971 0,-0.64866 0.0229,-0.68372 1.12126,-1.71697 1.22222,-1.14979 3.49174,-2.73269 5.02541,-3.50503 l 0.97171,-0.48934 -0.081,2.33664 c -0.0558,1.61174 -0.16986,2.72423 -0.36752,3.58594 -0.49614,2.16288 -0.65088,2.51069 -1.29977,2.92165 -0.66335,0.42011 -1.76193,1.75216 -2.53439,3.07301 -0.28991,0.49572 -0.71861,1.04678 -0.95267,1.22458 -1.20222,0.84645 -2.47145,1.53593 -3.80687,2.12652 -0.14295,-1.10184 -0.17058,-2.2715 -0.12316,-3.29539 z" />
		<path d="m -404.99492,238.57332 c 1.22701,-1.20334 1.68686,-1.75673 1.94524,-2.34098 0.32452,-0.73379 0.38292,-0.78543 1.42704,-1.26189 1.67345,-0.76362 3.63324,-1.30951 6.05457,-1.68645 1.419,-0.22091 1.35831,-0.40121 0.5544,1.64697 -0.66283,1.68879 -1.18453,2.70564 -2.06529,4.02549 -1.10244,1.65205 -1.18801,1.73875 -1.86572,1.89052 -0.82798,0.18541 -2.12042,0.92375 -3.40776,1.94675 -0.58229,0.46272 -1.2546,0.8979 -1.49405,0.96706 -1.40255,0.32644 -2.81374,0.5387 -4.24003,0.69708 0.61873,-2.80259 1.68814,-4.50572 3.0916,-5.88455 z" />
		<path d="m -402.82432,248.31659 c -0.49625,-0.0622 -1.47822,-0.25027 -2.18216,-0.41785 l -1.27991,-0.3047 0.30071,-0.43211 c 0.55307,-0.79478 1.87883,-2.37003 2.41888,-2.87411 0.31892,-0.29766 0.89793,-0.62492 1.43653,-0.81193 1.38446,-0.48069 2.93136,-1.36019 3.47401,-1.97516 l 0.48959,-0.55484 1.66196,-0.0765 c 2.16349,-0.0996 6.35506,0.39515 6.7841,0.80074 0.17957,0.16976 -1.71926,2.35522 -3.03858,3.49726 -0.61154,0.52937 -1.53552,1.24415 -2.05331,1.5884 -0.85399,0.56779 -1.00225,0.62011 -1.59632,0.56327 -0.85384,-0.0816 -2.45268,0.21106 -3.98909,0.73039 -0.67606,0.22853 -1.29556,0.40758 -1.37667,0.3979 -0.0811,-0.01 -0.5535,-0.0685 -1.04974,-0.13076 z" />
		<path d="m -396.50846,254.2263 c -0.75294,-0.36053 -2.44628,-0.62538 -3.9984,-0.62538 -0.81302,0 -1.09701,-0.0723 -1.94698,-0.49555 -0.54732,-0.27255 -1.48452,-0.81485 -2.08268,-1.20511 l -1.08755,-0.70956 0.3241,-0.25493 c 0.56006,-0.44055 2.53767,-1.615 3.1794,-1.88815 0.42412,-0.18054 1.13183,-0.29059 2.28067,-0.35466 1.95482,-0.10901 2.70179,-0.25255 3.50019,-0.6726 l 0.5852,-0.30787 1.08052,0.31604 c 1.88473,0.55127 4.9804,2.02303 6.58354,3.12999 0.1943,0.13416 0.0705,0.25178 -0.83286,0.79132 -1.42185,0.84919 -3.38237,1.71962 -4.79576,2.1292 -1.76729,0.51214 -2.00154,0.52451 -2.78939,0.14726 z" />
		<path d="m -397.05462,261.49965 c -1.03763,-0.12743 -1.12792,-0.16624 -1.55944,-0.67038 -0.48981,-0.57223 -2.24652,-1.55061 -3.76626,-2.09758 -0.72132,-0.25961 -1.02223,-0.47538 -1.71621,-1.23058 -0.96402,-1.04908 -2.12828,-2.62812 -2.01861,-2.73779 0.15213,-0.15214 2.15327,-0.59846 3.33769,-0.74443 1.12767,-0.13897 1.29026,-0.12726 2.01276,0.14501 1.41214,0.53216 3.49794,0.94021 4.23458,0.8284 0.61998,-0.0941 0.71866,-0.0643 1.47706,0.44489 1.7752,1.19203 5.65658,5.30541 5.23093,5.54362 -0.75685,0.42355 -5.33439,0.75193 -7.2325,0.51884 z" />
		<path d="m -396.64727,269.0871 c -1.88899,-0.39591 -3.32814,-0.87676 -4.87302,-1.62817 -1.14727,-0.55803 -1.20115,-0.60567 -1.53057,-1.35347 -0.26292,-0.59683 -0.70665,-1.13277 -1.92944,-2.33038 -1.47512,-1.44473 -1.62211,-1.63766 -2.06772,-2.71417 -0.26385,-0.63738 -0.6043,-1.60843 -0.75656,-2.15788 l -0.27684,-0.99899 0.30348,7.9e-4 c 0.56086,0.002 3.01022,0.40784 3.74355,0.62102 0.44198,0.1285 1.02487,0.45837 1.48876,0.84254 1.18938,0.98499 2.73455,1.89768 3.50744,2.07175 0.65649,0.14785 0.74995,0.22453 1.3678,1.12219 0.87175,1.26657 1.92068,3.40834 2.5385,5.18328 0.27355,0.78589 0.49736,1.4853 0.49736,1.55427 0,0.17877 -0.29152,0.14795 -2.01274,-0.2128 z" />
		<path d="m -403.26628,275.06837 c -1.69955,-0.96957 -2.86131,-1.84902 -4.31229,-3.26439 -1.34804,-1.31498 -1.3534,-1.32288 -1.3534,-2.00001 0,-0.75968 -0.78343,-2.80435 -1.5466,-4.03643 -0.42774,-0.69056 -0.44458,-0.77596 -0.49708,-2.51932 -0.0299,-0.99249 -0.004,-2.07663 0.0581,-2.40919 l 0.11247,-0.60465 1.17946,0.60743 c 1.77403,0.91363 3.01756,1.77657 3.20209,2.22207 0.17642,0.42592 1.37931,2.18754 1.93465,2.83326 0.19152,0.2227 0.60798,0.57414 0.92547,0.781 0.47513,0.30955 0.61467,0.50602 0.78867,1.11048 0.53078,1.8439 0.89318,5.66094 0.67949,7.15692 l -0.10446,0.73131 -1.06661,-0.60848 z" />
		<path d="m -412.01872,278.26055 c -1.50069,-1.73824 -2.83239,-3.83659 -3.56372,-5.6153 -0.3411,-0.82961 -0.363,-0.97442 -0.20357,-1.34605 0.2287,-0.53312 0.22945,-2.85619 0.002,-4.2337 -0.15327,-0.92564 -0.14364,-1.14882 0.0868,-2.01275 0.14258,-0.53442 0.51391,-1.55389 0.82517,-2.2655 l 0.56592,-1.29383 0.62039,0.59978 c 0.34122,0.32988 1.043,1.14235 1.5595,1.80549 0.83454,1.07148 0.9584,1.31103 1.11243,2.15156 0.28786,1.57087 0.93852,3.43374 1.40275,4.01613 0.41547,0.52121 0.42644,0.57045 0.3369,1.51044 -0.18425,1.93397 -0.93105,4.71825 -1.83568,6.84388 l -0.25426,0.59743 -0.65405,-0.75758 z" />
		<path d="m -421.66321,277.64976 c -0.84987,-2.37014 -1.28857,-4.47254 -1.28857,-6.17525 0,-0.85433 0.0466,-1.02772 0.39642,-1.47403 0.51626,-0.65871 1.40811,-3.42607 1.40811,-4.36928 0,-0.54276 2.73842,-3.97929 3.17093,-3.97929 0.17404,0 0.89758,1.66485 1.33942,3.08198 0.34188,1.09653 0.36106,1.27639 0.22889,2.14595 -0.31602,2.07902 -0.34382,3.2861 -0.0953,4.14083 l 0.23612,0.81223 -0.55886,1.12126 c -0.30739,0.61668 -0.8762,1.59719 -1.26405,2.1789 -0.75431,1.13136 -2.87059,3.73129 -3.03718,3.73129 -0.0552,0 -0.29635,-0.54656 -0.53589,-1.21459 z" />

         <g id="color-red">
			<path d="m -421.4302,236.63536 c -0.57048,-0.95983 -1.06663,-2.02216 -1.46027,-3.12669 l -0.13852,-0.38867 -0.0205,-0.50299 c -0.0113,-0.27665 -0.0176,-0.5174 -0.0141,-0.535 0.007,-0.0361 0.12797,0.10897 0.46762,0.56167 0.19885,0.26504 0.2041,0.27443 0.31088,0.55589 0.39895,1.05164 0.69741,2.13287 0.89345,3.23659 0.0335,0.18887 0.059,0.3453 0.0566,0.34762 -0.003,0.003 -0.0452,-0.0645 -0.0951,-0.14842 z" />
			<path d="m -416.11258,235.82828 c -0.0345,-0.10748 -0.14929,-0.81884 -0.20305,-1.25797 -0.0889,-0.72623 -0.12344,-1.31327 -0.12403,-2.10817 l -4.4e-4,-0.6073 0.0874,-0.288 c 0.10018,-0.33008 0.22474,-0.69403 0.24501,-0.71593 0.0135,-0.0145 0.0853,0.19325 0.25395,0.73499 l 0.0838,0.26894 -0.002,0.642 c -0.002,0.80612 -0.0358,1.35918 -0.12937,2.11685 -0.0728,0.58968 -0.19223,1.275 -0.21161,1.21459 z" />
			<path d="m -426.5548,238.8916 c -0.61867,-0.55377 -1.57799,-1.54339 -1.93592,-1.99707 -0.26911,-0.3411 -0.66477,-1.13857 -0.59801,-1.20533 0.014,-0.014 0.21021,0.0949 0.436,0.24204 0.42158,0.27471 0.70606,0.57634 1.34935,1.43071 0.51007,0.67744 1.27682,1.87409 1.23049,1.92042 -0.0118,0.0118 -0.22864,-0.16407 -0.48191,-0.39077 z" />
			<path d="m -430.10712,243.22337 c -0.63327,-0.24992 -1.98765,-0.91243 -2.50867,-1.22714 -0.27197,-0.16428 -0.5126,-0.36282 -0.72671,-0.59956 -0.17605,-0.19468 -0.30411,-0.35944 -0.28458,-0.36614 0.0195,-0.007 0.25057,0.0399 0.51344,0.10347 0.51907,0.12559 0.84547,0.29327 1.85322,0.95202 0.49503,0.32361 1.18723,0.8348 1.64406,1.21416 0.20432,0.16966 0.0874,0.15137 -0.49076,-0.0768 z" />
			<path d="m -432.85542,248.44622 c -0.081,-0.009 -0.39016,-0.0412 -0.68708,-0.0709 -1.05456,-0.10549 -1.57151,-0.22425 -2.04853,-0.47062 -0.23993,-0.12392 -0.41823,-0.24252 -0.39623,-0.26355 0.022,-0.021 0.24607,-0.0629 0.49794,-0.093 0.51134,-0.0612 0.96659,4.5e-4 2.16314,0.29259 0.6003,0.14659 1.9676,0.57418 1.9676,0.61531 0,0.0246 -1.26959,0.0163 -1.49684,-0.01 z" />
			<path d="m -435.75095,254.73965 -0.34354,-0.0575 0.49105,-0.25017 c 0.39314,-0.20028 0.58696,-0.26649 0.9721,-0.3321 0.90516,-0.1542 1.57996,-0.22275 2.46299,-0.25021 0.80926,-0.0252 0.87008,-0.0214 0.7248,0.0459 -0.46529,0.21518 -1.92735,0.62114 -2.92347,0.81173 -0.58422,0.11179 -0.86908,0.11844 -1.38393,0.0323 z" />
			<path d="m -433.60793,261.24524 c 0.009,-0.0229 0.15991,-0.19699 0.33536,-0.38688 0.33451,-0.36204 0.77048,-0.64364 1.76184,-1.13799 0.47578,-0.23725 1.69238,-0.75189 1.91891,-0.81173 0.1115,-0.0294 0.10702,-0.0187 -0.0491,0.11774 -0.3422,0.29912 -1.26238,0.98059 -1.74222,1.29028 -0.94414,0.60934 -1.2606,0.76938 -1.72393,0.87181 -0.4997,0.11048 -0.52302,0.11313 -0.50088,0.0568 z" />
			<path d="m -429.10105,266.59676 c 0,-0.0275 0.0781,-0.23233 0.17345,-0.45521 0.1907,-0.44553 0.53804,-0.89257 1.34683,-1.73336 0.49487,-0.51445 1.4802,-1.4132 1.51317,-1.38022 0.025,0.025 -0.42252,0.76709 -0.77023,1.27712 -0.75088,1.10147 -1.33943,1.78366 -1.78543,2.06954 -0.39602,0.25384 -0.47779,0.29186 -0.47779,0.22213 z" />
			<path d="m -423.03797,269.69716 c 0.0276,-0.43307 0.0662,-0.62122 0.20541,-0.9997 0.4491,-1.22148 1.42976,-3.2259 1.43503,-2.93312 0.003,0.15275 -0.24736,1.26871 -0.42014,1.87465 -0.38702,1.35728 -0.60987,1.84358 -1.11181,2.42625 l -0.14248,0.16539 0.034,-0.53347 z" />
			<path d="m -416.27517,270.97251 c -0.13496,-0.42041 -0.13933,-0.46606 -0.13325,-1.39167 0.006,-0.96336 0.048,-1.48636 0.19735,-2.47629 0.0925,-0.61312 0.11328,-0.59563 0.23088,0.19422 0.12659,0.85012 0.17886,1.55561 0.17891,2.4145 3e-5,0.71862 -0.0122,0.83409 -0.12741,1.20238 -0.0701,0.22408 -0.14533,0.42634 -0.1672,0.44947 -0.0219,0.0231 -0.10254,-0.15355 -0.17928,-0.39261 z" />
			<path d="m -409.53747,269.7388 c -0.21521,-0.28422 -0.36921,-0.62106 -0.6029,-1.31869 -0.3013,-0.89948 -0.70997,-2.55083 -0.64689,-2.61391 0.0425,-0.0425 0.60071,1.00551 0.91165,1.71164 0.53939,1.22489 0.66922,1.65539 0.64741,2.14677 l -0.0202,0.45592 -0.28903,-0.38173 z" />
			<path d="m -403.57437,266.37157 c -0.19929,-0.1342 -0.5694,-0.48557 -0.82249,-0.7808 -0.45554,-0.53143 -1.69365,-2.33042 -1.69365,-2.4609 0,-0.26294 2.52236,2.35084 2.69709,2.79485 0.0369,0.0937 0.11702,0.28744 0.17811,0.43059 0.0611,0.14315 0.0868,0.26027 0.0571,0.26027 -0.0297,0 -0.21696,-0.10981 -0.41623,-0.24401 z" />
			<path d="m -399.25411,261.13973 c -0.22904,-0.067 -0.6819,-0.28005 -1.00638,-0.4735 -1.01144,-0.603 -2.37874,-1.62105 -2.23951,-1.66746 0.12851,-0.0428 1.78932,0.70869 2.5648,1.16057 0.47067,0.27427 0.86413,0.56311 1.05527,0.77469 0.34745,0.38459 0.30929,0.40556 -0.37418,0.2057 z" />
			<path d="m -397.8176,254.71176 c -0.71464,-0.13425 -1.51358,-0.3418 -2.33057,-0.60541 l -0.70225,-0.22659 0.48583,-0.0224 c 0.54816,-0.0253 1.68998,0.0769 2.67209,0.23921 0.65587,0.10835 1.52981,0.47169 1.4082,0.58547 -0.1126,0.10534 -1.03553,0.12323 -1.5333,0.0298 z" />
			<path d="m -400.32989,248.29065 c 0.6938,-0.24888 1.981,-0.58412 2.68179,-0.69844 0.48533,-0.0792 1.41311,-0.0355 1.41311,0.0664 0,0.0269 -0.20182,0.1485 -0.44847,0.27013 -0.54063,0.2666 -1.83688,0.47714 -3.2994,0.53588 l -0.93697,0.0376 0.58994,-0.21163 z" />
			<path d="m -402.6832,243.3772 c 0.71499,-0.6478 2.52011,-1.87658 3.13289,-2.13262 0.13321,-0.0557 0.96496,-0.23515 0.9871,-0.21301 0.0155,0.0155 -0.4661,0.56312 -0.62012,0.70514 -0.13665,0.126 -0.94556,0.58738 -1.53918,0.87791 -0.60147,0.29436 -1.09608,0.51019 -1.61366,0.70414 -0.48815,0.18291 -0.48355,0.18214 -0.34703,0.0585 z" />
			<path d="m -406.18815,239.32771 c 0,-0.0528 0.5478,-0.94304 0.85099,-1.38296 0.32612,-0.47319 0.72076,-0.98766 1.11971,-1.45969 0.22092,-0.26138 0.33421,-0.35943 0.64933,-0.56203 0.20995,-0.13498 0.40894,-0.2557 0.44219,-0.26826 0.0558,-0.0211 0.0569,-0.0126 0.0132,0.1109 -0.19988,0.56561 -0.34523,0.82878 -0.67591,1.22372 -0.59234,0.70747 -1.10537,1.23764 -1.80118,1.86133 -0.39909,0.35773 -0.59834,0.51657 -0.59834,0.47699 z" />
			<path d="m -410.8375,236.63707 c -0.004,-0.28022 0.38662,-1.87477 0.65997,-2.69662 0.28886,-0.86844 0.35914,-1.02044 0.64327,-1.39111 0.39688,-0.51776 0.37593,-0.523 0.35192,0.088 -0.019,0.48412 -0.0291,0.54446 -0.14488,0.86236 -0.27844,0.76483 -0.46142,1.18959 -0.8544,1.98325 -0.42242,0.85308 -0.6545,1.26144 -0.65588,1.15408 z" />
	     </g>
	</g>
</g>
<!-- /2 -->

<!-- 3 -->
	<g  id="logo3">
		<use xlink:href="#sunflower" transform="matrix(0.87131613,0,0,0.87131613,-0.90007012,330.22154)" />
		<use xlink:href="#letterZ" transform="matrix(1.0405913,0,0,1.0405913,58.666635,300.03548)" />
		<use xlink:href="#letterR" transform="matrix(0.91197463,0,0,0.91197463,30.488019,309.2909)"  />
	</g>
<!-- /3 -->

<!-- 4 -->
	<use xlink:href="#sunflower" transform="matrix(0.74298606,0,0,0.74298606,-33.174756,656.50074)" id="logo4" />
<!-- /4 -->
</svg>