<svg 
version="1.1"
xmlns="http://www.w3.org/2000/svg" 
xmlns:xlink="http://www.w3.org/1999/xlink"
height="104" 
width="186" 
viewBox="0 0 186 104"
>
<style type="text/css">
<![CDATA[

	.monouzor rect {
		stroke: red;
		fill: #1F262F;
		}

    .monouzor .green, .monouzor .yellow, .monouzor .red, .monouzor .black,
    .monouzor .yellow-red, .monouzor .red-yellow, .monouzor .red-green {
          stroke: #000;
          fill: #1F252B;
          }

    .monouzor path {
        filter:url(#bevelshadow);
        }
    ]]>
</style>

          <filter id="bevelshadow" x="-50%" y="-50%" width="200%" height="200%">
              <feGaussianBlur stdDeviation="1" result="blur"/>

              <feOffset in="blur" dx="1" dy="1" result="blur1"/>
              <feOffset in="blur" dx="0" dy="0" result="blur2"/>

              <feComposite in="blur2" in2="blur1" operator="arithmetic" k2="1" k3="-1" result="diff1"/>
              <feFlood flood-color="black"/>
              <feComposite in2="diff1" operator="in" result="diff1"/>

              <feComposite in="blur1" in2="blur2" operator="arithmetic" k2="1" k3="-1" result="diff2"/>
              <feFlood flood-color="white" flood-opacity="0.5"/>
              <feComposite in2="diff2" operator="in" result="diff2"/>

              <feMorphology operator="erode" radius="2" in="SourceAlpha"/>
              <feGaussianBlur stdDeviation="2" result="blur"/>
              <feOffset dy="3" dx="3"/>
              <feComposite in2="SourceAlpha" operator="arithmetic"
                  k2="-1" k3="1" result="shadowDiff"/>
              <feFlood flood-color="black" flood-opacity=".8"/>
              <feComposite in2="shadowDiff" operator="in" result="shadow"/>

              <feMerge>
                <feMergeNode in="SourceGraphic"/>
                <feMergeNode in="shadow"/>
                <feMergeNode in="diff1"/>
                <feMergeNode in="diff2"/>
              </feMerge>
            </filter>

<!--monouzor-->
	<g transform="matrix(0,0.18,-0.18,0,190.70285,11.300825)" class="monouzor" id="monouzor">
		<!-- <rect y="18" x="-64" height="1036" width="590" /> -->
	<!--leaf-->
	  <g id="leaf">
	    <path class="yellow fill" d="M143.507 762.622c8.73 27.643 35.007 67.223-2.774 124.985 1.483-7.77.718-20.674-.31-29.516-7.127 18.504-14.054 25.398-40.88 41.785 6.232-11.308 7.445-24.758 8.178-34.748-10.68 15.5-18.7 14.804-38.26 28.14-.585-25.813 2.78-55.773 19.294-78.486-33.12 28.364-69.767 14.68-102.685-10.442l10.317-13.377c-13.035.216-26.17-5.144-43.095-13.885 8.85-10.408 15.526-18.042 26.366-23.474l-17.552-2.555c24.504-24.264 79.76-54.296 122.658-22.115-12.476-21.73-10.333-35.548 5.473-68.198 5.945 7.518 11.912 16.34 13.92 23.202l5.223-16.737c5.52 12.418 11.386 24.463 16.816 33.777l4.67-14.496c24.925 33.942 15.257 52.762 11.766 76.426z"/>
	    <g class="green fill">
	      <path d="M108.183 797.257c4.01-8.45 7.498-10.884 8.89-9.327 1.475 1.61-1.377 3.965-8.89 9.327m35.932 6.44c-4.325-10.16-11.205-11.564-9.44-14.822 1.835-3.566 9.963 5.174 9.44 14.823m-5.828 20.59c-10.38-11.764-14.057-14.372-12.03-16.53 2.636-2.958 6.634 3.718 12.03 16.53m-7.483 21.567c-5.15-9.962-7.442-19.228-5.137-19.925 3.044-.948 3.3 8.006 5.137 19.925m-29.213-26.953c5.26-9.912 9.226-13.697 10.57-12.637 1.515 1.163-1.86 4.37-10.57 12.637m2.36 19.864c2.398-10.026 4.553-14.686 7.11-13.117 1.67.906 1.5 4.437-7.11 13.115m15.368 13.767c-4.066-22.436 3.293-43.61 7.08-62.402-6.892 13.72-16.238 52.092-7.08 62.403M133.316 735.255c-.54 6.237-2.723 15.338-6.388 13.09-3.58-2.196 1.915-8.092 6.388-13.09m-30.97 10.327c6.12.352 12.488 1.444 11.706 4.248-.887 2.975-5.75.578-11.705-4.248m-6.008-15.064c8.3 1.574 14.662 3.248 12.03 7.733-2.007 3.463-5.913-2.217-12.03-7.73m.864-18.238c7.945 4.64 11.967 8.984 10.37 10.82-2.046 2.38-5.275-2.298-10.37-10.82m29.735 6.98c-1.72 7.393-2.07 13.51-5.33 11.747-2.746-1.45.12-4.973 5.33-11.747m-6.23-9.92c-.58 6.682-.55 10.455-3.283 9.365-2.615-.9.046-4.664 3.282-9.365m-12.074-5.178c-.07 24.59 10.553 42.838 21.37 58.858-10.068-18.962-14.188-37.678-21.37-58.858M18.507 796.202c6.774-8.747 11.83-13.74 14.335-12.085 2.76 1.81-3.948 5.67-14.335 12.085m-7.985-42.435c12.957 9.473 15.27 6.084 18.492 9.82-.202 4.92-7.81 4.124-18.492-9.82M-7.86 765.95c23.172 8.116 123.25 17.076 142.145 1.57-42.51 6.768-93.786 1.82-142.146-1.57m40.41-16.733c13.285 19.645 18.076 6.865 18.114 15.217-1.454 4.856-16.662-2.48-18.114-15.217zm16.972-4.72c19.545 17.855 25.553 13.798 22.573 18.656-2.3 3.75-13.663-3.924-22.573-18.657m-7.12 61.322c1.717-8.918 6.486-23 13.616-20.856 5.418 1.683-7.854 10.315-13.617 20.856m19.91 1.774c6.15-13.47 10.617-24.573 15.206-22.11 4.674 2.516-5.068 11.32-15.206 22.11m25.19-6.835c3.253-11.612 10.108-18.198 12.187-16.805 2.077 1.392-2.91 9.71-12.188 16.805m-6.825-55.8c12.867 11.53 20.1 11.98 17.53 15.212-2.675 3.402-16.422-9.37-17.53-15.214"/>
	    </g>
	    <g class="red line-18">
	      <path d="M152.215 853.594c-1.56 3.5-2.67 6.456-3.987 11.28.87-6.39.853-8.275-.7-12.63M128.916 868.627c-7.47 7.97-13.03 13.59-16.798 16.675 2.186-6.05 5.35-10.443 8.58-19.722M76.662 881.146l9.04-14.162m4.55 4.435c-4.087 4.176-8.987 8.912-13.89 10.596-1.404-5.553.96-12.08 2.935-17.788M131.376 705.912c1.11-2.956 1.527-3.638 2.363-10.163 2.407 7.927 3.424 9.14 4.696 10.505M111.036 681.704l2.72 16.215m-4.853.07c.05-6.773-.41-12.334 2.053-16.92 4.078 7.31 4.23 9.162 7.292 15.263M90.91 670.53l1.024 19.75m-5.267.17c.05-6.773 1.753-16.05 4.302-20.588 4.222 4.586 3.81 13.482 6.045 19.78M25.153 817.875S4.798 810.9-4.89 805.66c0 0 10.305-3.413 19.527-8.312"/>
	      <path d="M21.472 808.578c-6.326 1.516-24.817-3.142-24.817-3.142s15.675-.12 20.747-3.225M-6.596 785.495s-19.518-3.176-29.75-8.868c0 0 12.464-5.02 17.992-14.416"/>
	      <path d="M-13.88 776.334c-6.643 4.136-20.62.723-20.62.723s14.558-3.27 18.594-7.362M-10.706 750.128s-8.203-1.16-15.344-2.14c5.196-3.5 17.833-12.05 27.638-16.945"/>
	      <path d="M-3.114 745.4c-8.228-.354-19.053 1.803-19.053 1.803s17.04-8.08 23.24-9.203"/>
	    </g>
	    <g id="green-branch" class="green fill">
	      <path d="M154.587 750.635c30.15 31.164 108.63 17.96 120.374-16.478-30.36 27.122-76.46 32.86-120.372 16.478M211.554 782.063c-20.883-.377-34.817 17.938-33.57 34.07 5.116-14.457 21.306-30.332 33.57-34.07"/>
	      <path d="M196.25 751.56c-20.21-.902-28.49-9.97-31.833-16.948-4.715-8.757 2.46-11.276 4.088-4.178 2.496 9.508 12.435 15.488 27.744 21.126M188.292 776.004c-10.228 2.523-13.213 4.328-16.437 7.864-1.858 2.262-5.226 1.25-3.783-2.438 3.64-5.744 12.058-5.506 20.22-5.426"/>
	    </g>
	  </g>
	<!--/leaf-->
	<!--bell-->
	  <g id="bell">
	    <g class="black">
	      <g class="line-18">
	        <path d="M387.79 800.917c-4.1 22.697 1.6 45.994-6.4 66.99M386.79 800.917c-.7 22.697 4.098 52.993 5.498 62.992M386.79 800.917c1.3 15.598 6.398 46.994 18.497 59.992M345.794 794.918c-14.998 12.598-20.797 19.797-36.995 21.597M346.794 794.918c-11.598 14.898-20.597 24.497-32.796 31.396M347.794 789.918c-5.1 16.198-18.998 36.796-29.596 47.994"/>
	      </g>
	      <g class="fill">
	        <path d="M302.905 820.068a3.04 3.172 19.052 0 1 3.905-2 3.04 3.172 19.052 0 1-1.82-3.992 3.04 3.172 19.052 0 1-3.914 1.978 3.04 3.172 19.052 0 1 1.8 4.003M307.24 831.777a3.172 3.04-70.948 0 1 3.906-1.998 3.172 3.04-70.948 0 1-1.82-3.995 3.172 3.04-70.948 0 1-3.914 1.978 3.172 3.04-70.948 0 1 1.8 4.003M313.397 843.17a3.04 3.172 19.052 0 1 3.905-1.998 3.04 3.172 19.052 0 1-1.82-3.993 3.04 3.172 19.052 0 1-3.914 1.977 3.04 3.172 19.052 0 1 1.8 4.003M380.046 875.656a3.172 3.04 69.38 0 1 1.73-4.03 3.172 3.04 69.38 0 1-3.95-1.913 3.172 3.04 69.38 0 1-1.75 4.022 3.172 3.04 69.38 0 1 3.94 1.932M409.696 867.6a3.172 3.04 69.38 0 1 1.73-4.03 3.172 3.04 69.38 0 1-3.95-1.912 3.172 3.04 69.38 0 1-1.75 4.02 3.172 3.04 69.38 0 1 3.94 1.934M394.15 871.18a3.172 3.04 69.38 0 1 1.73-4.033 3.172 3.04 69.38 0 1-3.95-1.912 3.172 3.04 69.38 0 1-1.75 4.022 3.172 3.04 69.38 0 1 3.94 1.932"/>
	      </g>
	    </g>
	    <path class="yellow fill" d="M296.8 754.923c18.498 20.997 32.396 3.1 71.99-18.898 35.397-17.698 52.995 7.2 57.794 29.796 2.7 30.5-9.9 53.996 24.997 67.994-21.296 8-62.99 29.996-64.89-34.896-3 26.997 2.5 51.994-41.995 71.99-15.698-37.994-9.498-53.792 4.3-82.988C326.697 823.713 296 791.917 296 754.922z"/>
	    <g class="green">
	      <g class="line-18">
	        <path d="M377.32 743.085a1.79 1.79 0 0 1-1.785-1.79 1.79 1.79 0 0 1-1.795 1.78 1.79 1.79 0 0 1 1.776 1.8 1.79 1.79 0 0 1 1.804-1.772M388.328 752.847a1.79 1.79 0 0 1-1.786-1.79 1.79 1.79 0 0 1-1.795 1.78 1.79 1.79 0 0 1 1.777 1.8 1.79 1.79 0 0 1 1.804-1.772M398.52 759.924a1.79 1.79 0 0 1-1.786-1.79 1.79 1.79 0 0 1-1.795 1.78 1.79 1.79 0 0 1 1.775 1.8 1.79 1.79 0 0 1 1.804-1.77M409.504 764.533a1.79 1.79 0 0 1-1.786-1.79 1.79 1.79 0 0 1-1.795 1.78 1.79 1.79 0 0 1 1.777 1.8 1.79 1.79 0 0 1 1.804-1.772M421.088 769.046a1.79 1.79 0 0 1-1.786-1.79 1.79 1.79 0 0 1-1.795 1.78 1.79 1.79 0 0 1 1.777 1.8 1.79 1.79 0 0 1 1.804-1.77"/>
	      </g>
	      <g class="fill">
	        <path d="M330.796 782.92c10.4 4.2 20.897-10.7 38.995-24.698-13.496 4.7-29.494 23.997-38.993 24.697m.3-4c9.1-3.5 23.597-17.5 36.995-27.298-13.297 5.5-28.995 19.598-36.994 27.297m.4-7.7c11.3-9.6 20.997-16.998 34.996-24.897-12.8 4.2-23.997 9.1-34.996 24.897M371.79 819.915c8.2-15.598 9.4-32.996 13.9-51.594-8.4 17.6-10.6 34.998-13.9 51.596m-13.597-.9c4.5-10 14.598-38.795 20.997-53.993-10 11.698-20.997 42.594-20.997 53.993m-8.7-8.2c7.6-19.997 17.3-35.995 22.498-46.993-9.897 9.598-18.796 26.996-22.495 46.994M410.786 805.916c2.5-9.798 3.7-20.297 5.6-29.996-5.7 11-5.8 19.798-5.6 29.996m-7.3 10.6c2.3-11.7 3.3-28.897 5.5-45.595-6 13.8-7.5 34.497-5.5 45.596m-7.298-2.3c1.2-9.998 2.4-28.496 3.1-38.995-6.3 22.998-5.6 28.998-3.1 38.996"/>
	      </g>
	    </g>
	    <g class="red fill">
	      <path d="M343.794 816.915c-1.7 19.997-1.6 32.996 4.6 43.894 13.598-5.9 26.297-23.5 28.996-31.998-6.2 5.3-7.6 8.2-10.2 10.6.2-1.3 1.3-6.9 1.2-10l-7.998 13 .3-15-7 11.6-.6-12.7-4.598 7.4c-2.9-11-2-10.3-4.9-16.398M437.782 832.913c-4.6-4.5-13.398-10.7-16.597-22.997-2.3 5.9.1 8.8.1 13.198l-7.1-6.5c1.8 6.5 2.4 6.2 3.6 9.3l-7.5-4.4 1.7 7.2-6.798-2.9 4.2 5.6c-3.3-1-5.3-2-10-3 13.9 13.798 30.696 7.898 38.695 4.8zM329.796 795.918l-9-7.1h6.4c-5.2-3.3-5.7-2.4-7.998-4l4.3-1.5-5.7-1.9 4.5-2.598-5-2.2 5.1-2.5c-9.8-.8-17-6.2-20.798-9 3.9 16.4 16.998 33.597 27.996 30.998"/>
	    </g>
	    <path class="green fill" d="M270.804 593.943c-7.8-.1-14.998.6-20.998 1.9 90.99-11.9 186.977 67.79 160.98 123.984-1.7-.5-2.4.5-2.4.5-4.5-4.7-9.998-10.998-4.4-21.897-7.098 7.2-2.9 15.698.4 22.997-2.9 1.6-4.5 4.6-4.5 7.6-.6-.2-1.2-.3-1.798-.4-2.5-.5-4.3-.7-7.5-.6-3.8.1-6.6.6-10.598 1.8-2.1.6-4.3 1.4-4.2 1.5 0 0 2.5 0 5.5-.1s5.5-.1 5.5-.1-.2 2.3-.5 4.998c-.3 2.7-.6 5-.5 5.2 0 .2 1.1-.3 5.398-2.5 2.9-1.5 5.4-2.7 5.4-2.7s-.2 2.6-.6 5.8c-.4 3.1-.7 5.7-.7 5.7s1.5-1.7 3.3-3.8c3.3-3.8 3.7-4.3 3.7-4 0 .5 2.3 11.398 2.4 11.298.1-.1 1.898-5.8 2.598-8.1.1-.2.2-.4.3-.4.1 0 1.8 3.4 3.9 7.4 3.1 6 3.8 7.3 3.9 7 0-.2.3-2.5.6-5 .3-2.6.6-4.7.6-4.7s1.8 2.4 3.9 5.3c2.098 2.9 3.798 5.3 3.898 5.2 0-.1-.2-.8-.5-1.7-2.7-8.2-6.7-14.798-11.698-19.598 2-1 3.6-2.6 4.4-4.7 8.498-.3 14.197-3.3 15.197-11.998-3.2 9-10.998 9.3-14.898 6.6.3-.7 0-1.8-.7-2.5 26.397-83.99-81.99-129.984-144.98-129.984m-21 1.9c-.7.1-1.4.2-2.198.3l-.7.4c.9-.2 1.9-.5 2.9-.7"/>
	  </g>
	<!--/bell-->
	<!--drops-min-->
	  <g id="drops-min" class="green fill">
	    <path d="M97.755 72.83c-41.45 38.968-31.966 48.283-37.88 80.333-1.425 8.312-16.183 12.943-17.825-3.04-4.823-24.956 13.623-42.02 55.312-76.488zM125.652 61.583c-37.667 14.535-33.47 47.995-12.027 64.102-12.183-20.59-6.536-48.937 12.027-64.102M43.148 116.315c-22.867 14.703-20.393 34.18-7.616 42.964-4.426-14.16-1.85-27.983 7.616-42.966"/>
	  </g>
	<!--/drops-min-->
	<!--balls-on-branch-->
	  <g id="balls-on-branch">
	    <g class="green fill">
	      <path d="M290.498 478.9c18.207-3.746 33.528-5.44 56.366 2.72-12.426-10.403-25.577-14.382-37.555-16.294-1.1-9.766-8.107-18.326-15.27-23.45 2.77 11.845 5.56 22.05-3.92 36.856zM470.304 610.96c-72.975-64.105-124.612-87.4-196.855-87.72 50.696 8.312 94.062 6.536 196.853 87.72"/>
	      <path d="M433.207 677.566c-26.37-107.212-106.91-135.804-174.618-149.983 32.763 13.166 130.44 20.124 174.616 149.983M495.597 588.49c-67.347-89.06-151.38-98.648-219.672-86.197 35.262.12 130.404-17.042 219.672 86.198"/>
	    </g>
	    <g class="red-yellow line-18">
	      <path d="M352.163 513.57a11.392 12.407-51.83 0 1-2.732-16.6 11.392 12.407-51.83 0 1 16.764-1.352 11.392 12.407-51.83 0 1 2.818 16.594 11.392 12.407-51.83 0 1-16.747 1.436M397.256 625.423a13.984 15.23-51.83 0 1-3.353-20.378 13.984 15.23-51.83 0 1 20.575-1.658 13.984 15.23-51.83 0 1 3.46 20.37 13.984 15.23-51.83 0 1-20.56 1.762M392.832 569.42a11.84 12.895-51.83 0 1-2.84-17.255 11.84 12.895-51.83 0 1 17.423-1.404 11.84 12.895-51.83 0 1 2.93 17.248 11.84 12.895-51.83 0 1-17.408 1.493"/>
	    </g>
	    <g class="yellow-red line-18">
	      <path d="M391.492 524.41a11.392 12.407-51.83 0 1-2.732-16.6 11.392 12.407-51.83 0 1 16.763-1.352 11.392 12.407-51.83 0 1 2.818 16.595 11.392 12.407-51.83 0 1-16.747 1.436M321.872 503.926a6.37 6.937-51.83 0 1-1.527-9.282 6.37 6.937-51.83 0 1 9.373-.756 6.37 6.937-51.83 0 1 1.575 9.28 6.37 6.937-51.83 0 1-9.364.802M429.238 586.344a6.878 7.49-51.83 0 1-1.65-10.024 6.878 7.49-51.83 0 1 10.12-.815 6.878 7.49-51.83 0 1 1.703 10.02 6.878 7.49-51.83 0 1-10.11.866M360.13 548.744a8.496 9.253-51.83 0 1-2.038-12.38 8.496 9.253-51.83 0 1 12.5-1.008 8.496 9.253-51.83 0 1 2.103 12.375 8.496 9.253-51.83 0 1-12.49 1.073M365.882 583.54a8.32 9.062-51.83 0 1-1.995-12.124 8.32 9.062-51.83 0 1 12.243-.987 8.32 9.062-51.83 0 1 2.06 12.12 8.32 9.062-51.83 0 1-12.234 1.047M418.68 656.465a7.05 7.677-51.83 0 1-1.69-10.272 7.05 7.677-51.83 0 1 10.37-.836 7.05 7.677-51.83 0 1 1.744 10.267 7.05 7.677-51.83 0 1-10.362.89"/>
	    </g>
	  </g>
	<!--/balls-on-branch-->
	<!--balls-->
	  <g id="balls">
	    <g class="yellow fill">
	      <path d="M384.917 931.985a23.648 24.034 0 0 1-23.587 24.035 23.648 24.034 0 0 1-23.71-23.91 23.648 24.034 0 0 1 23.467-24.158 23.648 24.034 0 0 1 23.83 23.787"/>
	      <path d="M416.106 972.083a23.648 24.034 84.522 0 1-26.176-21.185 23.648 24.034 84.522 0 1 21.538-25.883 23.648 24.034 84.522 0 1 26.287 21.053 23.648 24.034 84.522 0 1-21.403 25.99"/>
	    </g>
	    <g class="red-green line-18">
	      <path d="M355.533 918.312a3.912 3.93 0 0 1-3.902 3.93 3.912 3.93 0 0 1-3.92-3.91 3.912 3.93 0 0 1 3.88-3.95 3.912 3.93 0 0 1 3.943 3.89M426.912 941.527a3.912 3.93 84.522 0 1-4.284-3.508 3.912 3.93 84.522 0 1 3.517-4.28 3.912 3.93 84.522 0 1 4.302 3.488 3.912 3.93 84.522 0 1-3.495 4.293"/>
	    </g>
	    <g class="red line-18">
	      <path d="M345.558 927.077c-.883 2.658-.396 7.832.35 10.01M354.755 926.444l3.393 10.78M359.375 920.91c3.273.49 5.36 3.315 6.422 5.503M361.227 913.063c2.663-.16 5.897.55 7.93 2.14M351.508 947.213c15.663 3.608 25.9-.563 25.792-18.57M416.887 932.065c-2.794-.635-7.826.33-9.918 1.366M418.478 940.978l-10.37 4.42M424.973 945.314c-.177 3.285-2.792 5.726-4.856 6.857M432.818 947.167c.478 2.674-.015 5.947-1.327 8.21M397.317 939.933c-2.04 16.033 3.035 25.794 20.942 23.943"/>
	    </g>
	    <path class="green fill" d="M353.053 968.242a24.034 23.648-16.462 0 1 29.733 15.81 24.034 23.648-16.462 0 1-16.212 29.512 24.034 23.648-16.462 0 1-29.817-15.658 24.034 23.648-16.462 0 1 16.06-29.593"/>
	    <path class="yellow-red line-18" d="M348.267 1000.297a3.93 3.912-16.462 0 1 4.874 2.628 3.93 3.912-16.462 0 1-2.636 4.87 3.93 3.912-16.462 0 1-4.887-2.605 3.93 3.912-16.462 0 1 2.612-4.882"/>
	    <g class="yellow line-18">
	      <path d="M359.88 1007.296c2.843.098 7.592-1.826 9.474-3.217M356.37 998.95l9.393-6.32M349.2 995.855c-.456-3.306 1.634-6.113 3.46-7.695M341.92 995.92c-.956-2.53-1.095-5.826-.252-8.265M377.357 995.876c-1.025-16.17-7.943-24.76-25.146-19.47"/>
	    </g>
	  </g>
	<!--/balls-->
	<!--ball-->
	  <g id="ball">
	    <path class="red fill" d="M116.197 170.436a17.536 17.822-9.924 0 1-14.157 20.57 17.536 17.822-9.924 0 1-20.374-14.436 17.536 17.822-9.924 0 1 14.053-20.644 17.536 17.822-9.924 0 1 20.444 14.33"/>
	    <path class="yellow fill" d="M92.986 164.203a2.9 2.914-9.924 0 1-2.347 3.37 2.9 2.914-9.924 0 1-3.367-2.355 2.9 2.914-9.924 0 1 2.33-3.38 2.9 2.914-9.924 0 1 3.377 2.336"/>
	    <g class="yellow line-18">
	      <path d="M86.85 172.167c-.313 2.087.704 5.748 1.57 7.252M93.294 170.287l3.864 7.453M96.18 165.266c2.473-.057 4.365 1.72 5.376 3.2M96.746 159.898c1.946-.49 4.385-.316 6.11.51M93.787 186.007c12 .61 18.912-3.76 16.466-16.88"/>
	    </g>
	  </g>
	<!--/ball-->
	<!--flower-->
	  <g id="flower">
	    <g class="green fill">
	      <path d="M94.038 472.954c20.542-58.408 38.49-65.13 66-75.184 12.718-4.38 28.528 6.998 10.613 19.274-30.61 16.34-55.366 10.182-76.806 56.37zM98.723 426.066c16.456-59.273 29.557-77.61 42.73-90.485 13.244-11.76 23.866-.953 22.683 9.515-4.284 6.003-12.534 11.626-27.57 17.63-1.575.635 16.617 2.813 15.005 3.54-9.58 4.41-21.02 10.634-28.356 21.532-1.515 2.29 11.447 3.227 9.394 5.506-12.07 13.344-22.476 18.162-34.015 32.817"/>
	      <path d="M246.448 226.34l-22.526-1.95-1.78 23.142.86 1.56c-1.867-.467-3.836-.433-5.686.086-7.46-7.51-17.05-12.556-25.03-11.16-6.89.878-12.332 2.697-15.22 10.27 14.064-14.456 27.674-8.9 31.368 2.88l1.063 3.383C110.52 298.38 66.307 379.56 76.657 480.628 95.49 602.672 183.645 650.93 277.544 654.92c44.97-1.02 52.997-17.384 54.655-16.68-65.083 34.09-245.07-13.806-244.656-186.345-4.438-99.646 66.594-161.845 125.207-180.43.606.365 1.21.73 1.948 1.043.83.35 1.604.572 2.51.74 2.598 6.423-.42 17.635-14.04 20.548 7.1 2.468 9.968.317 14.552-3.06 3.566-4.57 7.112-11.648 7.9-19.135 2.107-1.385 3.78-3.282 4.758-5.583l.04-.092.194-.46.463.956 17.497 8.945 17.306-21.336-19.94-27.25M126.307 286.796c10.345-14.4 14.94-21.902 23.167-30.033 6.29-6.89 16.502-4.078 7.705 6.418-7.88 7.305-14.84 9.89-30.69 23.695"/>
	      <path d="M144.41 318.37c13.865-13.994 26.398-19.213 39.41-18.906 13.2 1.146 11.213 18.116-6.137 16.513-13.226-1.593-21.416-7.89-33.18 2.433zM103.686 311.956c7.51-53.292 6.582-66.72 12.462-81.604 7.536-21.35 26.143-13.238 22.083 10.672-4.07 17.28-14.873 32.247-34.62 71.116zM66.508 448.24c12.215-69.76 26.17-120.318 25.965-150.816 2.814-23.787-2.037-54.084-21.21-69.82-18.712-14.78-48.306-11.587-65.01 5.004-11.408 39.692 33.84 30.322 54.336 66.496-15.9-10.655-28.32-6.474-36.01 1.668 24.248 3.01 33.52 18.02 38.16 58.547-7.26-7.21-17.986-10.347-23.088-5.235 16.304 17.126 25.467 34.7 26.472 93.776zm14.64-124.122c-3.617-44.98 2.99-72.59-19.08-83.037-19.273-7.306-35.74-1.26-23.183 7.544 28.972 2.625 30.498 35.64 42.75 75.375zM67.652 473.707c-33.894-44.79-43.08-46.948-50.125-63.622-9.066-19.595 11.413-31 26.905-9.657 11.84 17.404 10.567 31.418 23.063 73.647M71.808 497.193c-24.93-24.696-34.783-15.3-61.38-18.654-22.46-2.36-15.318-23.55 7.04-23.515 19.264.677 39.107 12.788 54.8 42.362zM79.702 537.47c-10.002-24.554-16.608-32.026-32.936-41.668-11.618-6.667-23.732-1.922-27.503.823 33.065 1.427 48.34 24.308 60.624 40.923zM96.885 568.654c-29.09-13.1-37.94-2.735-45.622.523-14.944 9.626-19.346-5.6-2.736-15.824 10.803-4.215 33.198-5.032 48.78 15.588zM193.145 646.418c-26.61-2.817-35.87 3.138-48.785-2.775-15.347-6.836-9.1-17.98 4.393-15.73 11.508 2.057 20.956 7.694 44.813 18.792z"/>
	      <path d="M62.1 427.907c-8.592-51.434-30.042-64.878-47.23-65.327-21.3-1.76-49.2 44.295 16.024 87.17-40.766-39.34-34.393-69.982-16.75-74.445 24.383-6.274 41.515 32.71 48.232 52.72zM-5.794 280.718c15.994-2.882 22.34-1.71 29.913 1.176 6.69 2.405 5.81 5.506 1.84 5.127-8.49-2.514-14.79-5.84-31.755-6.3M3.635 309.698c15.243-3.417 24.398 1.118 31.128 3.43 7.52 2.756 5.58 6.82.148 4.516-8.61-3.762-14.823-7.81-31.274-7.946M8.154 324.65c15.83-4.038 25.33.97 32.06 3.28 8.44 3.147 6.516 8.196.148 4.517-8.614-3.763-12.815-7.174-32.208-7.798M16.075 336.698c9.724-1.414 16.923-.206 24.733 2.89 8.31 3.2 4.66 7.19-1.456 3.944-8.613-3.763-12.834-5.336-23.185-6.795M154.76 383.584c10.342-15.163 16.833-17.406 23.175-20.58 7.983-3.456 11.082 3.832 5.314 6.164-8.73 3.682-17.033 6.352-28.53 14.508M77.89 580.146c12.57-6.072 19.313-3.537 26.917.558 7.104 3.99 6.393 10.532.96 7.467-10.154-8.324-15.306-9.75-27.877-8.023M105.87 602.973a4.062 4.1 22.988 0 1-5.33 2.192 4.062 4.1 22.988 0 1-2.157-5.345 4.062 4.1 22.988 0 1 5.32-2.22 4.062 4.1 22.988 0 1 2.183 5.334M121.296 609.272a2.683 2.708 22.988 0 1-3.52 1.448 2.683 2.708 22.988 0 1-1.425-3.53 2.683 2.708 22.988 0 1 3.516-1.466 2.683 2.708 22.988 0 1 1.442 3.523M137.55 616.565a2.196 2.217 22.988 0 1-2.88 1.186 2.196 2.217 22.988 0 1-1.167-2.89 2.196 2.217 22.988 0 1 2.877-1.2 2.196 2.217 22.988 0 1 1.18 2.885M186.977 433.093c17.72-4.647 41.48-5.864 56.427 10.36 14.014 15.613 25.796 45.7 5.256 61.86-29.538 18.423-31.514-33.246-65.175-43.507-74.4-6.146-59.03 106.38 13.28 147.916-113.107-53.413-91.687-155.11-10.63-177.203m3.143 19.47c21.67-1.67 39.365-6 50.12 9.097 9.94 14.21-3.34 26.822-12.138 12.23-12.43-20.37-22.758-19.322-37.667-21.302z"/>
	      <path d="M206.7 547.9c-8.335 25.79-4.94 42.11 7.076 57.31 6.583 8.548 23.414 19.055 29.366 16.8-25.68-18.062-41.488-43.015-35.983-73.915zM243.213 658.97c-21.958-12.25-39.692-11.41-59.69 12.69 20.905-9.594 28.413-17.053 59.69-12.69M281.956 662.37c-23.86-4.69-43.78 8.473-58.43 37.883 19.313-17.874 32.782-32.47 58.43-37.882M186.477 582.766c-15.34-12.48-10.53-25.103-8.006-34.893 2.948-9.504 13.617-7.258 11.17 2.348-2.694 9.937-6.936 16.61-2.992 32.4z"/>
	    </g>
	    <g class="yellow fill">
	      <path d="M169.098 498.28c-20.127-10.93-19.045 15.706-2.136 15.276-12.504 12.834 4.73 29.812 10.438 10.728 10.362 15.257 27.798 1.04 9.503-11.392 14.172-1.917 7.832-19.486-3.415-14.482 1.266-12.714-14.663-13.823-14.443-.262zM286.855 102.924c11.135-35.464-47.564-85.02-92.092-44.064-17.658 14.23-15.89 45.393-25.334 62.023-5.454 9.525-15.197 12.778-20.963 23.04-14.31 24.775-4.992 34.81 4.107 49.206 29.55 27.63 63.178 25.17 94.435 38.54l11.432 20.923c-8.015 30.16-15.814 30.11-49.508 68.06-21.51 34.32-5.695 50.804 16.35 57.983 10.33 3.297 19.54 8.725 22.564 13.375l9.517 24.674c14.457 18.407 27.332 13.66 48.062 6.27 28.977-10.19 48.88-42.26 51.463-68.316.91-6.24-.793-26.296-4.09-33.885z"/>
	      <path d="M248.448 190.898c-10.91-49.81 43.916-107.36 123.285-106.274l-10.46 22.608c5.008 15.592 34.013 5.848 50.632 8.662 16.038 5.718 27.246 11.56 35.49 18.75-42.23 8.15-26.767 50.553 43.91 37.308-31.205 25.428-75.284 52.78-10.578 47.212-17.83 35.88-45.618 37.126-69.464 54.163-11.483 15.548 8.882 30.27 24.474 21.678-28.802 43.826-116.592 34.17-145.267-16.008-8.683-22.8-15.963-28.17-27.335-43.094"/>
	    </g>
	    <g class="red">
	      <path class="line-18" d="M186.978 504.778c-3.4 3.662-6.806 5.802-10.9 6.237l.105-14.075m-.16 13.944c5.357 3.25 7.538 7.324 8.905 11.27m-22.65-18.296c2.374 2.853 8.346 5.93 13.89 7.196-2.863 2.912-5.42 7.15-5.51 11.456"/>
	      <path class="fill" d="M181.13 513.308a4.83 4.49 22.988 0 1-6.19 2.254 4.83 4.49 22.988 0 1-2.71-6.005 4.83 4.49 22.988 0 1 6.174-2.284 4.83 4.49 22.988 0 1 2.744 5.992"/>
	    </g>
	    <path class="red fill" d="M299.662 141.813c-7.364-3.124-18.186-.655-28.85 9.375-12.15 16.35-12.286 32.802-8.673 69.09l-12.465-25.923c-9.116-18.964-33.65 10.706-5.8 29.037 10.7 7.8-1.354 10.613-7.473 17.358-3.275 9.255 2.574 14.67 9.258 14.79 13.805-5.658 22.22-2.197 21.11 6.564-14.565 30.75 30.192 41.482 18.655 6.72l-2.21-4.522c8.332 12.875 13.06 20.42 25.822 27.463 30.777 18.595 48.895-20.53 25.43-32.55-18.05-9.937-29.905-13.228-61.98-20.318l-2.04-1.844c55.316 15.54 78.992 5.815 98.634-4.643 22.193-13.394 30.76-43.32-11.19-51.45-31.022.416-58.725 18.097-90.93 50.487l-.78-1.743c30.722-35.3 36.01-43.157 41.53-63.842 3.077-12.38-.867-21.003-8.23-24.127"/>
	    <g class="black line-18">
	      <path d="M283.283 178.014a1.842 1.74 22.988 0 1-2.37.885 1.842 1.74 22.988 0 1-1.024-2.317 1.842 1.74 22.988 0 1 2.363-.896 1.842 1.74 22.988 0 1 1.036 2.31M278.347 193.564a1.428 1.35 22.988 0 1-1.837.686 1.428 1.35 22.988 0 1-.794-1.794 1.428 1.35 22.988 0 1 1.834-.695 1.428 1.35 22.988 0 1 .803 1.793M274.945 203.89a1.204 1.137 22.988 0 1-1.55.58 1.204 1.137 22.988 0 1-.67-1.513 1.204 1.137 22.988 0 1 1.547-.586 1.204 1.137 22.988 0 1 .677 1.51M270.637 214.17a.905.855 22.988 0 1-1.165.436.905.855 22.988 0 1-.504-1.138.905.855 22.988 0 1 1.163-.44.905.855 22.988 0 1 .51 1.135M344.078 214.587a2.532 2.228 35.865 0 1-3.11-1.755 2.532 2.228 35.865 0 1 1.45-2.802 2.532 2.228 35.865 0 1 3.12 1.74 2.532 2.228 35.865 0 1-1.437 2.81M331.932 217.19a1.964 1.728 35.987 0 1-2.41-1.36 1.964 1.728 35.987 0 1 1.126-2.17 1.964 1.728 35.987 0 1 2.417 1.347 1.964 1.728 35.987 0 1-1.114 2.18M318.59 219.428a1.655 1.456 35.91 0 1-2.034-1.146 1.655 1.456 35.91 0 1 .948-1.833 1.655 1.456 35.91 0 1 2.04 1.137 1.655 1.456 35.91 0 1-.94 1.836M305.635 222.948a1.244 1.095 35.616 0 1-1.53-.86 1.244 1.095 35.616 0 1 .714-1.38 1.244 1.095 35.616 0 1 1.53.854 1.244 1.095 35.616 0 1-.704 1.383M317.425 277.436a1.74 1.842 41.62 0 1-.08-2.528 1.74 1.842 41.62 0 1 2.52-.23 1.74 1.842 41.62 0 1 .093 2.526 1.74 1.842 41.62 0 1-2.52.244M309.923 273.208a1.35 1.428 41.62 0 1-.062-1.96 1.35 1.428 41.62 0 1 1.955-.18 1.35 1.428 41.62 0 1 .073 1.96 1.35 1.428 41.62 0 1-1.954.19M294.173 260.676a1.137 1.204 41.62 0 1-.053-1.653 1.137 1.204 41.62 0 1 1.648-.15 1.137 1.204 41.62 0 1 .06 1.65 1.137 1.204 41.62 0 1-1.646.16M286.61 254.335a.855.905 41.62 0 1-.04-1.243.855.905 41.62 0 1 1.24-.113.855.905 41.62 0 1 .045 1.24.855.905 41.62 0 1-1.238.12M301.816 267.522a1.35 1.428 41.62 0 1-.063-1.96 1.35 1.428 41.62 0 1 1.954-.18 1.35 1.428 41.62 0 1 .073 1.96 1.35 1.428 41.62 0 1-1.954.19M252.59 220.407c-1.982-6.596-5.558-15.064-12.587-16.417M273.342 258.537c3.955 8.086 2.46 15.706-.022 22.582M254.765 240.88c-2.93-.264-6.968 1.064-10.04 4.974M326.38 140.327c-14.674 40.48-38.284 64.132-59.8 89.76M345.57 146.296c-38.71 44.4-74.667 81.28-79.29 84.75M358.234 162.53c-65.1 40.808-20.813 13.218-87.47 62.816M332.36 134.293a3.172 3.04 22.988 0 1-4.1 1.562 3.172 3.04 22.988 0 1-1.748-4.026 3.172 3.04 22.988 0 1 4.09-1.584 3.172 3.04 22.988 0 1 1.77 4.017M352.39 143.6a3.172 3.04 22.988 0 1-4.1 1.56 3.172 3.04 22.988 0 1-1.746-4.024 3.172 3.04 22.988 0 1 4.09-1.583 3.172 3.04 22.988 0 1 1.77 4.017M366.588 161.733a3.172 3.04 22.988 0 1-4.1 1.56 3.172 3.04 22.988 0 1-1.747-4.024 3.172 3.04 22.988 0 1 4.093-1.584 3.172 3.04 22.988 0 1 1.768 4.017M399.15 236.02a3.172 3.04 22.988 0 1-4.1 1.563 3.172 3.04 22.988 0 1-1.746-4.025 3.172 3.04 22.988 0 1 4.09-1.583 3.172 3.04 22.988 0 1 1.77 4.017M399.774 260.572a3.172 3.04 22.988 0 1-4.1 1.562 3.172 3.04 22.988 0 1-1.746-4.025 3.172 3.04 22.988 0 1 4.09-1.585 3.172 3.04 22.988 0 1 1.768 4.018M386.993 286.985a3.172 3.04 22.988 0 1-4.1 1.562 3.172 3.04 22.988 0 1-1.746-4.025 3.172 3.04 22.988 0 1 4.09-1.583 3.172 3.04 22.988 0 1 1.768 4.016M269.855 238.593c41.622 4.298 84.71 7.697 119.956-1.137M272.086 238.454l117.708 19.523M270.245 237.673c36.643 7.073 70.53 18.082 108.554 43.66"/>
	    </g>
	    <g class="green line-28" stroke-width="2">
	      <path d="M204.822 109.396C186.474 86.08 221.362 37.126 262.198 74M188.45 191.513c-21.912-7.232-36.52-48.837 9.737-62.123M252.914 369.83c-41.867 3.963-37.13-32.803-20.57-48.803M327.918 379.927c-16.174 32.24-62.59 45.132-59.858 2.846"/>
	    </g>
	    <g class="green fill">
	      <path d="M283.363 100.493a2.415 2.62 22.988 0 1-3.24 1.47 2.415 2.62 22.988 0 1-1.21-3.344 2.415 2.62 22.988 0 1 3.233-1.49 2.415 2.62 22.988 0 1 1.228 3.337M281.426 86.798a2.415 2.62 22.988 0 1-3.24 1.47 2.415 2.62 22.988 0 1-1.21-3.344 2.415 2.62 22.988 0 1 3.233-1.488 2.415 2.62 22.988 0 1 1.226 3.337M275.347 76.11a2.415 2.62 22.988 0 1-3.24 1.47 2.415 2.62 22.988 0 1-1.21-3.345 2.415 2.62 22.988 0 1 3.233-1.488 2.415 2.62 22.988 0 1 1.227 3.337M265.33 63.837a2.415 2.62 22.988 0 1-3.24 1.47 2.415 2.62 22.988 0 1-1.21-3.344 2.415 2.62 22.988 0 1 3.233-1.488 2.415 2.62 22.988 0 1 1.228 3.337M252.838 56.754a2.415 2.62 22.988 0 1-3.24 1.47 2.415 2.62 22.988 0 1-1.21-3.343 2.415 2.62 22.988 0 1 3.233-1.487 2.415 2.62 22.988 0 1 1.23 3.337M240.05 52.632a2.415 2.62 22.988 0 1-3.24 1.47 2.415 2.62 22.988 0 1-1.212-3.344 2.415 2.62 22.988 0 1 3.234-1.488 2.415 2.62 22.988 0 1 1.228 3.337M229.71 51.95a2.415 2.62 22.988 0 1-3.24 1.47 2.415 2.62 22.988 0 1-1.21-3.345 2.415 2.62 22.988 0 1 3.233-1.488 2.415 2.62 22.988 0 1 1.228 3.337M218.424 55.115a2.415 2.62 22.988 0 1-3.24 1.472 2.415 2.62 22.988 0 1-1.21-3.345 2.415 2.62 22.988 0 1 3.233-1.488 2.415 2.62 22.988 0 1 1.227 3.337M206.722 62.494a2.415 2.62 22.988 0 1-3.24 1.47 2.415 2.62 22.988 0 1-1.21-3.343 2.415 2.62 22.988 0 1 3.233-1.487 2.415 2.62 22.988 0 1 1.228 3.337M197.894 73.112a2.415 2.62 22.988 0 1-3.24 1.472 2.415 2.62 22.988 0 1-1.21-3.345 2.415 2.62 22.988 0 1 3.233-1.49 2.415 2.62 22.988 0 1 1.227 3.337M191.38 86.64a2.415 2.62 22.988 0 1-3.24 1.472 2.415 2.62 22.988 0 1-1.212-3.345 2.415 2.62 22.988 0 1 3.234-1.488 2.415 2.62 22.988 0 1 1.228 3.335M187.13 102.827a2.415 2.62 22.988 0 1-3.24 1.47 2.415 2.62 22.988 0 1-1.21-3.343 2.415 2.62 22.988 0 1 3.234-1.49 2.415 2.62 22.988 0 1 1.227 3.34M183.12 116.4a2.415 2.62 22.988 0 1-3.24 1.47 2.415 2.62 22.988 0 1-1.212-3.345 2.415 2.62 22.988 0 1 3.234-1.488 2.415 2.62 22.988 0 1 1.227 3.337M177.143 129.913a2.415 2.62 22.988 0 1-3.24 1.472 2.415 2.62 22.988 0 1-1.21-3.345 2.415 2.62 22.988 0 1 3.234-1.488 2.415 2.62 22.988 0 1 1.227 3.337M166.603 140.473a2.415 2.62 22.988 0 1-3.24 1.47 2.415 2.62 22.988 0 1-1.21-3.344 2.415 2.62 22.988 0 1 3.233-1.49 2.415 2.62 22.988 0 1 1.227 3.337M157.764 153.306a2.415 2.62 22.988 0 1-3.24 1.472 2.415 2.62 22.988 0 1-1.21-3.345 2.415 2.62 22.988 0 1 3.234-1.488 2.415 2.62 22.988 0 1 1.227 3.337M155.664 167.06a2.415 2.62 22.988 0 1-3.24 1.47 2.415 2.62 22.988 0 1-1.21-3.345 2.415 2.62 22.988 0 1 3.233-1.488 2.415 2.62 22.988 0 1 1.227 3.337M157.276 181.32a2.415 2.62 22.988 0 1-3.24 1.47 2.415 2.62 22.988 0 1-1.21-3.345 2.415 2.62 22.988 0 1 3.233-1.488 2.415 2.62 22.988 0 1 1.225 3.337M170.865 193.29a2.415 2.62 22.988 0 1-3.24 1.47 2.415 2.62 22.988 0 1-1.21-3.343 2.415 2.62 22.988 0 1 3.233-1.49 2.415 2.62 22.988 0 1 1.227 3.338M184.538 204.036a2.415 2.62 22.988 0 1-3.24 1.47 2.415 2.62 22.988 0 1-1.21-3.343 2.415 2.62 22.988 0 1 3.233-1.49 2.415 2.62 22.988 0 1 1.23 3.338M201.05 209.344a2.415 2.62 22.988 0 1-3.24 1.47 2.415 2.62 22.988 0 1-1.21-3.343 2.415 2.62 22.988 0 1 3.234-1.487 2.415 2.62 22.988 0 1 1.227 3.337M212.93 214.142a2.415 2.62 22.988 0 1-3.24 1.47 2.415 2.62 22.988 0 1-1.21-3.344 2.415 2.62 22.988 0 1 3.234-1.488 2.415 2.62 22.988 0 1 1.228 3.337M226.01 217.944a2.415 2.62 22.988 0 1-3.24 1.472 2.415 2.62 22.988 0 1-1.21-3.345 2.415 2.62 22.988 0 1 3.233-1.486 2.415 2.62 22.988 0 1 1.227 3.337M262.375 269.945a2.415 2.62 22.988 0 1-3.24 1.47 2.415 2.62 22.988 0 1-1.21-3.344 2.415 2.62 22.988 0 1 3.234-1.486 2.415 2.62 22.988 0 1 1.225 3.337M258.355 278.937a2.415 2.62 22.988 0 1-3.24 1.47 2.415 2.62 22.988 0 1-1.21-3.344 2.415 2.62 22.988 0 1 3.233-1.488 2.415 2.62 22.988 0 1 1.228 3.337M251.984 288.782a2.415 2.62 22.988 0 1-3.24 1.472 2.415 2.62 22.988 0 1-1.21-3.345 2.415 2.62 22.988 0 1 3.233-1.49 2.415 2.62 22.988 0 1 1.227 3.337M243.945 298.195a2.415 2.62 22.988 0 1-3.24 1.47 2.415 2.62 22.988 0 1-1.21-3.344 2.415 2.62 22.988 0 1 3.233-1.486 2.415 2.62 22.988 0 1 1.228 3.337M233.855 306.463a2.415 2.62 22.988 0 1-3.24 1.47 2.415 2.62 22.988 0 1-1.21-3.343 2.415 2.62 22.988 0 1 3.233-1.49 2.415 2.62 22.988 0 1 1.227 3.338M224.066 317.74a2.415 2.62 22.988 0 1-3.24 1.47 2.415 2.62 22.988 0 1-1.21-3.345 2.415 2.62 22.988 0 1 3.233-1.488 2.415 2.62 22.988 0 1 1.225 3.337M217.1 330.762a2.415 2.62 22.988 0 1-3.24 1.47 2.415 2.62 22.988 0 1-1.21-3.344 2.415 2.62 22.988 0 1 3.234-1.488 2.415 2.62 22.988 0 1 1.227 3.337M211.725 342.95a2.415 2.62 22.988 0 1-3.24 1.47 2.415 2.62 22.988 0 1-1.21-3.344 2.415 2.62 22.988 0 1 3.233-1.488 2.415 2.62 22.988 0 1 1.227 3.337M212.535 355.91a2.415 2.62 22.988 0 1-3.24 1.472 2.415 2.62 22.988 0 1-1.21-3.345 2.415 2.62 22.988 0 1 3.233-1.488 2.415 2.62 22.988 0 1 1.228 3.335M217.707 364.894a2.415 2.62 22.988 0 1-3.24 1.47 2.415 2.62 22.988 0 1-1.21-3.344 2.415 2.62 22.988 0 1 3.234-1.488 2.415 2.62 22.988 0 1 1.23 3.337M228.494 372.28a2.415 2.62 22.988 0 1-3.24 1.472 2.415 2.62 22.988 0 1-1.21-3.345 2.415 2.62 22.988 0 1 3.233-1.488 2.415 2.62 22.988 0 1 1.227 3.335M241.212 377.54a2.415 2.62 22.988 0 1-3.24 1.47 2.415 2.62 22.988 0 1-1.21-3.345 2.415 2.62 22.988 0 1 3.233-1.488 2.415 2.62 22.988 0 1 1.227 3.337M252.593 382.23a2.415 2.62 22.988 0 1-3.24 1.47 2.415 2.62 22.988 0 1-1.21-3.344 2.415 2.62 22.988 0 1 3.233-1.488 2.415 2.62 22.988 0 1 1.228 3.337M259.75 389.93a2.415 2.62 22.988 0 1-3.24 1.47 2.415 2.62 22.988 0 1-1.21-3.345 2.415 2.62 22.988 0 1 3.233-1.488 2.415 2.62 22.988 0 1 1.227 3.337M261.957 401.35a2.415 2.62 22.988 0 1-3.24 1.47 2.415 2.62 22.988 0 1-1.21-3.344 2.415 2.62 22.988 0 1 3.234-1.488 2.415 2.62 22.988 0 1 1.23 3.337M269.37 412.107a2.415 2.62 22.988 0 1-3.24 1.47 2.415 2.62 22.988 0 1-1.21-3.344 2.415 2.62 22.988 0 1 3.233-1.488 2.415 2.62 22.988 0 1 1.228 3.337M277.736 420.504a2.415 2.62 22.988 0 1-3.24 1.472 2.415 2.62 22.988 0 1-1.21-3.345 2.415 2.62 22.988 0 1 3.233-1.486 2.415 2.62 22.988 0 1 1.225 3.337M289.656 420.18a2.415 2.62 22.988 0 1-3.24 1.47 2.415 2.62 22.988 0 1-1.21-3.344 2.415 2.62 22.988 0 1 3.233-1.49 2.415 2.62 22.988 0 1 1.226 3.338M300.863 417.078a2.415 2.62 22.988 0 1-3.24 1.472 2.415 2.62 22.988 0 1-1.21-3.345 2.415 2.62 22.988 0 1 3.233-1.488 2.415 2.62 22.988 0 1 1.228 3.337M311.685 411.342a2.415 2.62 22.988 0 1-3.24 1.47 2.415 2.62 22.988 0 1-1.21-3.344 2.415 2.62 22.988 0 1 3.233-1.488 2.415 2.62 22.988 0 1 1.228 3.337M325.772 402.48a2.415 2.62 22.988 0 1-3.24 1.47 2.415 2.62 22.988 0 1-1.21-3.343 2.415 2.62 22.988 0 1 3.233-1.49 2.415 2.62 22.988 0 1 1.228 3.34M334.887 393.11a2.415 2.62 22.988 0 1-3.24 1.47 2.415 2.62 22.988 0 1-1.21-3.344 2.415 2.62 22.988 0 1 3.233-1.488 2.415 2.62 22.988 0 1 1.228 3.337M345.023 379.275a2.415 2.62 22.988 0 1-3.24 1.47 2.415 2.62 22.988 0 1-1.21-3.343 2.415 2.62 22.988 0 1 3.233-1.49 2.415 2.62 22.988 0 1 1.227 3.34M350.05 365.94a2.415 2.62 22.988 0 1-3.24 1.47 2.415 2.62 22.988 0 1-1.21-3.343 2.415 2.62 22.988 0 1 3.233-1.49 2.415 2.62 22.988 0 1 1.227 3.338M351.455 349.71a2.415 2.62 22.988 0 1-3.24 1.472 2.415 2.62 22.988 0 1-1.21-3.344 2.415 2.62 22.988 0 1 3.233-1.49 2.415 2.62 22.988 0 1 1.228 3.338M352.558 337.243a2.415 2.62 22.988 0 1-3.24 1.47 2.415 2.62 22.988 0 1-1.21-3.344 2.415 2.62 22.988 0 1 3.234-1.49 2.415 2.62 22.988 0 1 1.227 3.337"/>
	    </g>
	    <g class="green line-18">
	      <path d="M330.312 102.895c-6.93 3.793-14.127 10.516-18.19 15.743M335.445 106.158c-6.524 3.858-14.075 10.647-16.16 14.54M339.266 109.952c-2.003 1.648-9.768 7.152-15.463 14.945M329.113 98.042s11.865-8 31.167-7.415c0 0-3.96 8.312-13.092 17.037"/>
	      <path d="M344.733 97.065c3.888-3.02 16.19-6.926 16.19-6.926s-6.1 4.904-13.59 10.525M391.566 122.363c.733-.45 26.1-3.917 42.352 10.256-4.273 1.88-17.868 10.882-15.765 18.725"/>
	      <path d="M413.517 129.503c6.148-2.714 19.85 2.88 19.85 2.88s-14.332 1.524-17.442 5.527M428.385 173.825c10.493 4.45 40.238 6.534 43.507 6.51-2.973 1.888-24.743 15.57-29.418 26.077"/>
	      <path d="M441.94 182.834c4.66-.74 25.71-2.996 26.248-2.985-.493 1.42-18.417 7.825-21.756 10.32M445.233 221.16c2.006 2.696 20.41 5.398 26.13 4.458-4 4.82-16.353 15.763-28.088 20.126"/>
	      <path d="M451.035 227.964c10.73 1.077 16.094-.558 18.22-.96 1.118.692-.212 3.06-20.125 7.755M397.147 283.305c2.282 6.398 8.865 18.532 21.514 20.205 0 0-15.35 9.562-31.07 11.8"/>
	      <path d="M396.673 297.223c4.647 3.384 11.458 6.273 20.362 6.792.014.223-12.683 3.526-24.192 1.468M402.85 129.742c-9.275 1.33-19.995 5.756-26.61 9.82M407.335 135.398c-8.842 1.567-19.986 5.922-23.857 9.332M410.14 141.102c-2.896.988-13.778 3.85-23.232 10.058M436.172 181.915c-7.516.468-18.884 2.54-22.9 4.17M436.956 189.634c-5.476.402-19.402 2.92-22.545 4.237M438.445 196.644c-1.77.93-16.185 4.366-23.672 5.372"/>
	      <path d="M438.296 241.34c-7.56 2.295-17.4 2.732-23.977 1.977M439.556 235.39c-7.32 1.96-17.455 2.602-21.696 1.368M439.52 230.005c-2.578.277-11.944 1.972-21.497.587" stroke-width="1.6"/>
	      <path d="M384.118 303.943c-7.586-2.212-16.06-7.227-21.155-11.457M388.427 299.65c-7.202-2.36-16.037-7.366-18.913-10.72M391.342 295.124c-2.31-1.18-11.08-4.88-18.32-11.265M383.265 216.296l-15.304 5.348M385.3 198.694l-15.303 5.348M387.42 203.938l-15.302 5.348M382.26 193.06l-15.303 5.347M377.518 188.874l-15.304 5.348M386.92 210.243l-15.304 5.348M370.544 184.83l-15.304 5.347M378.44 225.112l-15.305 5.348M363.18 181.705l-15.305 5.348M308.543 155.497l-4.603 11.072M297.043 141.072l-4.604 11.073M302.333 143.074l-4.604 11.073M290.584 140.307l-4.603 11.073M283.94 142.27l-4.603 11.072M306.115 147.303l-4.603 11.073M276.62 146.214l-4.604 11.073M322.757 295.526l-8.83-8.112M339.43 288.993l-8.833-8.112M335.74 293.28l-8.832-8.112M343.172 283.842l-8.832-8.11M344.36 278.45l-8.83-8.113M330.47 295.388l-8.83-8.11M343.973 270.877l-8.832-8.11M222.9 205.04c-3.385-6.105.827-6.817 1.77-11.087-8.655 2.736-31.123 1.677-26.86.335 19.708 14.987 26.85 10.956 25.09 10.752zm14.87-29.424c1.183-6.884 5.55-7.964 7.01-11.146-17.548-19.826-28.077-19.84-40.557-32.41 10.533 15.11 30.875 30.91 33.548 43.556zm15.026-30.554c.008-4.884.315-10.728 4.736-11.676-18.09.145-39.893-12.47-46.22-19.064 22.6 29.68 40.748 26.843 41.813 30.988zm12.418-25.687c3.662-3.768 1.333-5.19 11.162-9.927-9.824-11.662.09-25.812-12.025-31.82 9.826 15.246-8.92 22.825.81 41.616zM261.03 291.815c2.753-1.113 5.484 2.434 9.322 3.628 2.8 1.08-16.817 4.053-32.208 20.876 21.463-29.346 26.51-24.6 22.794-24.546zm28.908 13.784c-14.074 17.813-19.482 39.522-30.787 60.794 4.29-15.994 9.245-42.783 20.538-67.1 3.995 4.41 3.705 4.07 10.382 6.25zm29.762 13.82c-3.804 15.11-31.942 50.203-45.12 57.97 17.97-29.303 32.655-52.4 34.72-62.384 4.2 3.41 2.596 2.84 10.205 4.872zm19.386 5.507c2.005 13.45 4.756 25.912-8.685 48.123 10.054-22.67 4.458-41.227.015-49.955 2.982.396 5.807 1.16 8.764 1.872zM248.644 188.96c-7.79-18.512 12.81-66.042 38.602-79.215M351.417 320.546c-25.85-5.643-53.706-21.915-64.19-48.413"/>
	    </g>
	    <g class="red fill">
	      <path d="M252.467 346.143a9.23 10.013 22.988 0 1-12.386 5.623 9.23 10.013 22.988 0 1-4.625-12.784 9.23 10.013 22.988 0 1 12.36-5.69 9.23 10.013 22.988 0 1 4.692 12.756M306.234 386.066a9.23 10.013 22.988 0 1-12.385 5.623 9.23 10.013 22.988 0 1-4.63-12.786 9.23 10.013 22.988 0 1 12.36-5.69 9.23 10.013 22.988 0 1 4.693 12.756M241.575 98.887a9.23 10.013 22.988 0 1-12.385 5.623 9.23 10.013 22.988 0 1-4.627-12.785 9.23 10.013 22.988 0 1 12.36-5.688 9.23 10.013 22.988 0 1 4.692 12.755M204.864 166.87a9.23 10.013 22.988 0 1-12.385 5.622 9.23 10.013 22.988 0 1-4.63-12.784 9.23 10.013 22.988 0 1 12.36-5.69 9.23 10.013 22.988 0 1 4.693 12.756"/>
	    </g>
	  </g>
	<!--/flower-->
	<!--drops-max-->
	  <g id="drops-max">
	    <g class="green fill">
	      <path d="M18.227 872.993c-22.4 69 5.8 82 21 91 25 10 60.7 6.3 80-12.8-46.6 14-113 8.9-101-78zM137.227 976.993c-22 34.6-9.3 42-18.9 57-12 15.8-28.6-2.2-20.9-18 5.9-9.6 15.9-26.8 39.8-39M173.227 946.993c-20.3 6.6-19.8 25.7-17 43.8 3.3-16.9 7.3-30 17-43.8M192.227 916.993c-2.6 20.5 6.2 26 8.4 35 3.1 17.4-12.6 14.5-15.4-.8-1.8-8.1 1.5-20.4 7-34.5z"/>
	      <path d="M65.227 918.993c10.5 26 62.7 35 79 16.3-26 10.2-55.9 3.2-79-16.3M173.227 904.993c-15.8 13.9-26.5 17.3-41 16.8-15.5-1-8.3-11.2-2.5-8.9 16 3.1 20.8 2.4 43.6-7.9M205.227 872.993c-15.3 20.6-33.5 26-52.7 27.5-6.7-1-4.2-8 1.5-7.4 11 .5 30.4-1.7 51-20"/>
	    </g>
	    <g id="drops-max-flower">
	      <path class="yellow fill" d="M242.227 913.993c-15.2-2.8-24 4.4-28 13-6 15.3 4.9 26.7 13.6 15.3 3.3-4.7 10-13.2 16.5-15.8-4.3 9.9-7.4 17.5-5.3 27.7 3.4 13.6 11.9 22.8 20.3 2 2.6-5.8.6-13.4-1.6-23 2.8 5.7 7.3 9.3 13 11.6 12.4 3.3 21.9-6.6 13.3-18.9-3.6-3.9-7-6.9-19.6-5.9 16.5-.2 18.3-10 18.4-16.3-.9-20.7-14.9-21.7-19.3-10l-7.4 18.9c-1.9-8.5-2.3-17.4-5.9-26-5.1-12-14.2-5.2-15.5 4.9-.6 8.1 5.1 15.4 7.7 23z"/>
	      <g class="red line-28">
	        <path d="M233.227 922.993c3.6-6.8 11.6-2.3 18.6-1.5l-3.6-18.5M269.227 904.993c-3.6 7.1-10.4 13.6-17 17.3 4.6 0 13.9 4.1 18.9 8.2M252.227 921.993c-1.7 8.4-2.2 15.3-1.9 21.4"/>
	      </g>
	      <path d="M254.75 924.226a4.63 4.306 22.988 0 1-5.933 2.16 4.63 4.306 22.988 0 1-2.6-5.756 4.63 4.306 22.988 0 1 5.92-2.19 4.63 4.306 22.988 0 1 2.63 5.745" class="red fill"/>
	    </g>
	  </g>
	</g>
<!--/monouzor-->
</svg>