<svg xmlns="http://www.w3.org/2000/svg" viewBox="0 0 500 375" height="375" width="500">

	<title xmlns="http://www.w3.org/2000/svg">Русский алфавит</title>
  <desc xmlns="http://www.w3.org/2000/svg">Cовременный русский алфавит в результате своей эволюции стал лингвистической моделью Геокристалла Земли.</desc>

	<g transform="translate(0 276.378)">

		<g transform="scale(1.04437 .9575)" font-family="Liberation Serif" fill="#0cf">
			<g font-size="20">
				<text y="-260.324" x="119.947">Северный полюс</text>
				<text y="90.888" x="127.802">Южный полюс</text>
			</g>
			<g font-size="18" font-style="italic">
				<text y="-124.758" x="397.791">27° с.ш.</text>
				<text y="-44.419" x="397.791">27° ю.ш.</text>
				<text y="-87.874" x="397.472">Экватор</text>
				<text y="-164.927" x="397.497">52° с.ш.</text>
				<text y="-2.105" x="397.513">52° ю.ш.</text>
			</g>
		</g>

		<g fill="none" stroke="#000" stroke-width="1">
			<path transform="matrix(.74648 0 0 .6844 -110.147 -318.17)" d="M205.93 392.22h435.65l-.742.743"/>
			<path d="M231.95 33.022L266.15-9.354M577.646 33.765l35.685-43.12M491.408 33.022l34.198-41.633M405.914 33.765l33.454-43.12M318.932 33.765l34.198-43.12" transform="matrix(.74648 0 0 .6844 -110.147 -95.745)"/>
			<path transform="matrix(.74648 0 0 .6844 -110.147 -318.17)" d="M267.635 315.646l52.784 46.093v-2.975 8.178"/>
			<path d="M172.033-124.934l32.84-108.338 32.842 108.854-.224 78.93L205.77 56.05l-3.285-10.11-30.564-94.006z"/>
			<path d="M44.177-125.905l160.82-107.61L367.486-124.37l.006 76.592L214.236 50.42l-8.36 5.357L44.18-48.533z"/>
			<path d="M108.38-124.917l96.278-108.414L301.49-124.4l-.105 78.987-95.287 102.118-98.05-103.98z"/>
			<path d="M172.928-125.65c62.74 72.822 61.47 74.14 65.12 76.617"/>
			<path d="M291.687-11.16c24.52-16.258 46.056-33.517 30.845-63.113l-.523 1.018"/>
			<path d="M205.115-11.68c7.674-21.696 3.408-41.404-11.1-63.09v.508"/>
			<path d="M289.464-160.75c36.134 25.852 55.864 46.8 56.587 62.06l-.576-.495v.496"/>
			<path d="M119.097-162.793c-41.865 26.6-42.33 45.382-34.407 62.582M161.83-162.793c-23.237 25.898-25.78 46.69-10.545 63.09h-.555"/>
			<path d="M64.712-75.28c3.267 19.72 14.82 37.643 53.276 62.582"/>
			<path d="M130.197-74.77c7.504 25.237 17.848 46.83 32.742 62.58l-1.11-1.016.554 2.035M257.836-74.77c16.735 31.186 1.832 47.503-9.99 64.108l1.666-.51-2.22-1.017"/>
			<path d="M204.527-162.29c-2.288 26.394.37 48.485 12.213 62.59"/>
			<path d="M248.812-162.284c19.036 24.597 28.7 45.274 31.524 63.09M45.29-125.65l321.875.508h-.553 1.106v.51"/>
			<path d="M126.866-11.126c16.204 6.582 18.682 7.923 37.184 0v-.505"/>
			<path d="M247.828-11.287c8.44 6.486 18.495 8.175 34.99 1.325"/>
			<path d="M165.708-11.934c14.34 6.02 20.823 8.605 36.64.53"/>
			<path d="M134.06-163.698c14.78-5.313 15.247-2.117 30.005 1.962"/>
			<path d="M205.64-12.14c11.486 7.695 27.726 7.417 36.133 1.206"/>
			<path d="M169.574-163.087c10.546-6.648 25.564-4.284 30.577.823"/>
			<path d="M250.62-163.3c14.642-7.545 15.888-4.706 28.86-.508"/>
			<path d="M206.22-162.272c14.115-4 17.4-7.793 31.645-.943"/>
			<path d="M152.95-100.72l38.846 29.51h-2.22l5.55 4.07M217.88-101.228l38.29 29.51M282.254-100.72L321.1-72.226M346.628-101.228l21.09 14.246M44.18-87.49L62.49-71.72M43.624-125.142l63.915 75.18"/>
			<path d="M108.183-125.655l64.98 76.924"/>
			<path d="M237.172-125.647l65.286 76.91"/>
			<path d="M302.692-125.142l63.36 76.32"/>
			<path d="M285.56-11.39c14.507 10.233 18.417 3.775 21.925 1.99"/>
			<path d="M102.964-10.76c7.618 4.165 14.66 4.286 19.422-2.75"/>
			<path d="M285.048-161.32c9.53-3.357 14.006-5.852 21.2-4.397"/>
			<path d="M121.317-162.794c-7.494-4.144-6.5-6.776-17.758-2.564"/>
			<path d="M44.734-86.982h323.538"/>
		</g>

		<g fill="#fff" fill-rule="evenodd" stroke="#000" stroke-width="1">
			<ellipse ry="9.165" rx="9.996" cy="-165.868" cx="126.874"/>
			<ellipse ry="9.165" rx="9.996" cy="-165.868" cx="165.131"/>
			<ellipse ry="9.165" rx="9.996" cy="-165.868" cx="205.254"/>
			<ellipse ry="9.165" rx="9.996" cy="-165.868" cx="244.22"/>
			<ellipse ry="9.165" rx="9.996" cy="-165.868" cx="283.56"/>
			<ellipse ry="9.165" rx="9.996" cy="-125.625" cx="44.24"/>
			<ellipse ry="9.165" rx="9.996" cy="-125.625" cx="108.81"/>
			<ellipse ry="9.165" rx="9.996" cy="-125.625" cx="173.38"/>
			<ellipse ry="9.165" rx="9.996" cy="-125.625" cx="237.95"/>
			<ellipse ry="9.165" rx="9.996" cy="-125.625" cx="302.52"/>
			<ellipse ry="9.165" rx="9.996" cy="-72.038" cx="62.976"/>
			<ellipse ry="9.165" rx="9.996" cy="-72.038" cx="127.546"/>
			<ellipse ry="9.165" rx="9.996" cy="-72.038" cx="192.116"/>
			<ellipse ry="9.165" rx="9.996" cy="-101.535" cx="88.804"/>
			<ellipse ry="9.165" rx="9.996" cy="-101.535" cx="153.374"/>
			<ellipse ry="9.165" rx="9.996" cy="-101.535" cx="217.944"/>
			<ellipse ry="9.165" rx="9.996" cy="-101.535" cx="282.515"/>
			<ellipse ry="9.165" rx="9.996" cy="-101.535" cx="347.085"/>
			<ellipse ry="9.165" rx="9.996" cy="-72.038" cx="256.687"/>
			<ellipse ry="9.165" rx="9.996" cy="-72.038" cx="321.257"/>
			<ellipse ry="9.165" rx="9.996" cy="-49.316" cx="44.24"/>
			<ellipse ry="9.165" rx="9.996" cy="-49.316" cx="173.38"/>
			<ellipse ry="9.165" rx="9.996" cy="-49.316" cx="237.95"/>
			<ellipse ry="9.165" rx="9.996" cy="-49.316" cx="302.52"/>
			<ellipse ry="9.165" rx="9.996" cy="-49.316" cx="367.09"/>
			<ellipse ry="9.165" rx="9.996" cy="-9.484" cx="126.874"/>
			<ellipse ry="9.165" rx="9.996" cy="-9.484" cx="165.131"/>
			<ellipse ry="9.165" rx="9.996" cy="-9.484" cx="205.254"/>
			<ellipse ry="9.165" rx="9.996" cy="-9.484" cx="283.56"/>
			<ellipse ry="9.165" rx="9.996" cy="-49.316" cx="108.81"/>
			<ellipse ry="9.165" rx="9.996" cy="-125.625" cx="367.09"/>
			<ellipse ry="9.165" rx="9.996" cy="-9.484" cx="244.22"/>
			<ellipse ry="9.165" rx="9.996" cy="50.4" cx="205.254"/>
			<ellipse cx="205.254" cy="-231.022" rx="9.996" ry="9.165"/>
		</g>

		<g transform="scale(1.04437 .9575)" font-size="25" font-family="Liberation Serif">
			<g fill="#00f">
				<text y="-166.52" x="114.869">д</text>
				<text y="-166.745" x="153.624">з</text>
				<text y="-166.235" x="190.167">б</text>
				<text y="-166.901" x="227.999">в</text>
				<text y="-166.901" x="266.265">г</text>
				<text y="-99.892" x="76.309">ж</text>
				<text y="-99.736" x="140.608">л</text>
				<text y="-99.892" x="201.000">м</text>
				<text y="-99.892" x="263.844">н</text>
				<text y="-99.704" x="326.618">р</text>
				<text y="-68.6" x="53.992">х</text>
				<text y="-68.991" x="115.272">ц</text>
				<text y="-68.6" x="177.371">ч</text>
				<text y="-69.3" x="236.253">ш</text>
				<text y="-69.358" x="298.21">щ</text>
				<text y="-3.399" x="115.591">т</text>
				<text y="-3.644" x="151.838">с</text>
				<text y="-3.399" x="189.9">п</text>
				<text y="-3.508" x="225.638">ф</text>
				<text y="-3.399" x="265.199">к</text>
			</g>
			<g fill="red">
				<text y="-125.153" x="36.047">о</text>
				<text y="-125.153" x="98.555">а</text>
				<text y="-124.38" x="159.521">у</text>
				<text y="-124.853" x="222.938">э</text>
				<text y="-125.153" x="345.185">о</text>
				<text y="-124.909" x="281.349">ы</text>
				<text y="-45.1" x="36.766">ё</text>
				<text y="-45.1" x="345.656">ё</text>
				<text y="-45.713" x="98.289">я</text>
				<text y="-45.500" x="156.700">ю</text>
				<text y="-45.500" x="222.050">е</text>
				<text y="-45.713" x="282.926">и</text>
			</g>
			<g fill="purple">
				<text x="190.162" y="-235.267">ъ</text>
				<text y="58.399" x="191.150">ь</text>
			</g>
		</g>

	</g>
</svg>