<svg xmlns="http://www.w3.org/2000/svg" version="1.2" width="500" height="375">

  <title>Второстепенные члены предложения</title>
  <desc>Второстепенные члены предложения распространяют грамматическую основу предложения, но могут относиться и к другим второстепенным членам.</desc>
  
  <g stroke-width="1.53519058" stroke="#f76601" fill="none" transform="translate(-5.2970499,29.803845)">
      <path d="m 270.75765,137.62814 12.35331,-2.54093 -12.33385,-2.47766"/>
      <path d="m 220.76176,135.07076 0.099,0.026 58.56549,0.0253 0.12726,5.1e-4"/>
      <path d="m 229.31041,132.59313 -12.35782,2.55715 12.33836,2.49349"/>
 </g>
  <g stroke-width="1.53519058" stroke="#f76601" fill="none" transform="matrix(0,1,-1,0,342.96,-63.797608)">
    <path d="m 273.28965,197.90814 12.35331,-2.54093 -12.33385,-2.47767"/>
    <path d="m 253.27261,195.37042 10.76598,0.085 17.91966,-0.0933 0.12726,5.2e-4"/>
  </g>
  <g stroke-width="1.53519058" stroke="#f76601" fill="none" transform="matrix(0,1,-1,0,552.56,-63.797608)">
    <path d="m 273.28965,197.90814 12.35331,-2.54093 -12.33385,-2.47767"/>
    <path d="m 253.27261,195.37042 10.76598,0.085 17.91966,-0.0933 0.12726,5.2e-4"/>
  </g>
  <g stroke-width="1.53519058" stroke="#f76601" fill="none" transform="matrix(0,1,-1,0,552.56,5.7023922)">
    <path d="m 273.28965,197.90814 12.35331,-2.54093 -12.33385,-2.47767"/>
    <path d="m 253.27261,195.37042 10.76598,0.085 17.91966,-0.0933 0.12726,5.2e-4"/>
  </g>
  <g stroke-width="1.53519058" stroke="#f76601" fill="none" transform="matrix(0,1,-1,0,342.96,5.7023922)">
    <path d="m 273.28965,197.90814 12.35331,-2.54093 -12.33385,-2.47767"/>
    <path d="m 253.27261,195.37042 10.76598,0.085 17.91966,-0.0933 0.12726,5.2e-4"/>
  </g>
  
  <line x1="151.0" y1="93.0" x2="245.0" y2="93.0" style="fill:none;stroke:#55c71f;stroke-width:2px;stroke-dasharray:10, 7"/>
  <line x1="252.0" y1="93.0" x2="344.0" y2="93.0" style="fill:none;stroke:#55c71f;stroke-width:2px;stroke-dasharray:10, 7"/>
  
  <path
     style="fill:none;stroke:#55c71f;stroke-width:1.95674002"
     d="m 272.92012,59.821103 c 2.9709,0.052 4.86988,-4.02585 7.12649,-4.02585 2.25614,0 3.62634,3.97252 6.41149,4.02575 2.9723,0.0503 4.87013,-4.02614 7.12663,-4.02614 2.25651,0 3.62577,3.97262 6.41162,4.02569 2.9718,0.0519 4.86987,-4.02571 7.12614,-4.02571 2.25707,0 3.62754,3.9724 6.41159,4.02567 2.97305,0.052 4.87092,-4.0261 7.12713,-4.0261 2.25572,0 3.62639,3.9724 6.4114,4.02565 2.97187,0.0498 4.87078,-4.02603 7.12684,-4.02603 2.25624,0 3.62749,3.97278 6.41167,4.02562 2.97193,0.0521 4.87008,-4.02562 7.12698,-4.02562 2.2556,0 3.62591,3.97244 6.41103,4.02562"/>
  <path
     style="fill:none;stroke:#55c71f;stroke-width:1.95674002"
     d="m 153.23488,59.821173 c 0,0 4.86986,-4.02593 7.1263,-4.02593 2.25611,0 3.62614,3.97287 6.41159,4.02586 2.97118,0.052 4.86961,-4.02629 7.12632,-4.02629 2.25572,0 3.62582,3.97286 6.41086,4.02591 2.97147,0.0521 4.8698,-4.02591 7.12626,-4.02591 2.25618,0 3.62627,3.9726 6.41154,4.02591 2.97116,0.0521 4.86964,-4.02641 7.1257,-4.02641 2.25642,0 3.62701,3.97282 6.41142,4.02605 2.97163,0.052 4.87037,-4.02638 7.12632,-4.02638 2.25612,0 3.62567,3.97268 6.41178,4.02596 2.97073,0.052 4.8696,-4.02598 7.12609,-4.02598 2.25602,0 3.62614,3.97265 6.41113,4.02588 2.97215,0.0503 4.86986,-4.02628 7.12623,-4.02628 2.25638,0 3.62558,3.97275 6.41127,4.02583 2.97163,0.0519 4.86959,-4.02585 7.12572,-4.02585 2.25695,0 3.62735,3.97254 6.41125,4.02581" />
  
  <line style="fill:none;stroke:#55c71f;stroke-width:104" x1="90.0" y1="57.0" x2="90.0" y2="59.0"/>
  <line style="fill:none;stroke:#55c71f;stroke-width:120" x1="422.0" y1="57.0" x2="422.0" y2="59.0"/>
  <line style="fill:none;stroke:#55c71f;stroke-width:120" x1="422.0" y1="61.0" x2="422.0" y2="63.0"/>
  
 <g font-weight="bold" font-style="italic" font-family="URW Palladio L" letter-spacing=".2" fill="#3214e4">
  <text xml:space="preserve" font-family="URW Palladio L" font-size="22.5" x="2.0" y="52.0">
      Прогулки &#160;на &#160;свежем &#160;воздухе &#160;укрепляют
    </text>
  <text xml:space="preserve" font-size="22.5" x="110.0" y="87.0">
       здоровье &#160;малыша.
    </text> 

    <text xml:space="preserve" font-size="22.5" x="55" y="170">
      Прогулки
    </text>
    <text xml:space="preserve" font-size="22.5" x="260" y="170">
      укрепляют
    </text>
    <text xml:space="preserve" font-size="22.5" x="50" y="240">
      на воздухе
    </text>
    <text xml:space="preserve" font-size="22.5" x="267" y="240">
      здоровье
    </text>
    <text xml:space="preserve" font-size="22.5" x="63" y="310">
      свежем
    </text>
    <text xml:space="preserve" font-size="22.5" x="266" y="310">
      малыша
    </text>
 </g>
 
 <line style="fill:none;stroke:#55c71f;stroke-width:104" x1="142.0" y1="174.0" x2="142.0" y2="176.0"/>
 <line style="fill:none;stroke:#55c71f;stroke-width:122" x1="358.0" y1="174.0" x2="358.0" y2="176.0"/>
 <line style="fill:none;stroke:#55c71f;stroke-width:122" x1="358.0" y1="178.0" x2="358.0" y2="180.0"/>
 <line x1="300.0" y1="315.0" x2="394.0" y2="315.0" style="fill:none;stroke:#55c71f;stroke-width:2px;stroke-dasharray:10, 7"/>
 <line x1="300.0" y1="245.0" x2="394.0" y2="245.0" style="fill:none;stroke:#55c71f;stroke-width:2px;stroke-dasharray:10, 7"/>
 <path style="fill:none;stroke:#55c71f;stroke-width:1.95674002" d="m 98.5084,317.90005 c 2.9709,0.052 4.86988,-4.02585 7.12649,-4.02585 2.25614,0 3.62634,3.97252 6.41149,4.02575 2.9723,0.0503 4.87013,-4.02614 7.12663,-4.02614 2.25651,0 3.62577,3.97262 6.41162,4.02569 2.9718,0.0519 4.86987,-4.02571 7.12614,-4.02571 2.25707,0 3.62754,3.9724 6.41159,4.02567 2.97305,0.052 4.87092,-4.0261 7.12713,-4.0261 2.25572,0 3.62639,3.9724 6.4114,4.02565 2.97187,0.0498 4.87078,-4.02603 7.12684,-4.02603 2.25624,0 3.62749,3.97278 6.41167,4.02562 2.97193,0.0521 4.87008,-4.02562 7.12698,-4.02562 2.2556,0 3.62591,3.97244 6.41103,4.02562"/>
 <path style="fill:none;stroke:#55c71f;stroke-width:1.95674002" d="m 84.839106,248.65344 c 0,0 4.86986,-4.02593 7.1263,-4.02593 2.256114,0 3.626144,3.97287 6.411594,4.02586 2.97118,0.052 4.86961,-4.02629 7.12632,-4.02629 2.25572,0 3.62582,3.97286 6.41086,4.02591 2.97147,0.0521 4.8698,-4.02591 7.12626,-4.02591 2.25618,0 3.62627,3.9726 6.41154,4.02591 2.97116,0.0521 4.86964,-4.02641 7.1257,-4.02641 2.25642,0 3.62701,3.97282 6.41142,4.02605 2.97163,0.052 4.87037,-4.02638 7.12632,-4.02638 2.25612,0 3.62567,3.97268 6.41178,4.02596 2.97073,0.052 4.8696,-4.02598 7.12609,-4.02598 2.25602,0 3.62614,3.97265 6.41113,4.02588 2.97215,0.0503 4.86986,-4.02628 7.12623,-4.02628 2.25638,0 3.62558,3.97275 6.41127,4.02583 2.97163,0.0519 4.86958,-4.02585 7.12571,-4.02585 2.25695,0 3.62735,3.97254 6.41125,4.02581"/>
</svg>
